<svg id="Layer_1" data-name="Layer 1" xmlns="http://www.w3.org/2000/svg" viewBox="0 0 2988.28 2441.82"><defs><style>.cls-1{fill:#fff;}</style></defs><path class="cls-1" d="M1121.41,1626.93l11.86-32.46c11.51-31.83,36-65.91,74-102.14,72.83-59.89,123-77,202.67-77h195.66c101.07,0,197.28-68.16,237.93-179.84L1988,838.26H2223.8L2075.08,1247q-64.21,176.42-248.45,294.48c-98.1,56.65-195.84,85.24-292,85.24Z" transform="translate(-5.76 -1.48)"/><path class="cls-1" d="M2101.69,1626.93l254.92-700.55c13-36,42-62.94,87.49-81.83a96.69,96.69,0,0,1,31.66-5.48H2625.2l-209.69,576.28H2994l-4.13,11.51q-29.14,79.94-129.94,151.69c-55.21,32.38-102.78,48.38-142.88,48.38Z" transform="translate(-5.76 -1.48)"/><path class="cls-1" d="M1759.11,2124.36c-93.7,34-188.83,67-282.08,103.67a66.84,66.84,0,0,0-36,43.52c-6.38,43.16-2,87.85-7.91,131.1-2.16,15.38-21.67,40.65-33.27,40.65-128.94,0-257.89-4.32-386.65-7.11-33.18-.72-45-19.69-38.13-48.64,29-125.26-21-193.51-146-216.89A239.56,239.56,0,0,1,727,2120.94c-51-41.36-83.27-22.75-123,17.08-93.88,94.06-98.1,95.14-193,2.7-66.53-64.83-125-138.11-186.94-207.89-25.08-28.24-22.21-51.44,7.65-77.06,38.75-33.36,73.19-71.94,102.68-100.89-36.5-102.51-69.68-199.17-106.37-294.48a64,64,0,0,0-42.17-32.64,303.69,303.69,0,0,0-91.18-2.07c-59.61,7.19-91.08-14.3-88.84-76.52q6.39-170.84,13.31-341.69c1.35-35.16,18-49.19,54.76-46.85,51.08,3.33,113.57,18,150.71-4.58,33.17-20.59,36.68-86.86,56.82-131.28,21.94-48.47,50.36-94.15,70.95-143.15a68.89,68.89,0,0,0-6.56-56.56,379.07,379.07,0,0,0-73.74-79.31c-41.09-32.73-35.51-63.39-2.7-94.59,84-79.85,169.32-158.44,253.75-237.92,28.06-26.44,50-23.56,76.79,4.94,35,37.31,75.18,69.87,109.7,101.34,95.41-33.45,195.76-67.53,294.85-104.94,12.4-4.76,24.46-27,25.8-41.72,4-43.52-.44-87.94,4.59-131.28,1.71-15,21.4-40.1,32.91-40.1,127,0,254.2,3.59,381.34,6,41.73.72,48.92,25,47.21,60.87-2.25,49.1-17.53,109,4.5,144.41,20,32,83.62,35.25,126.33,54.85,60.25,27.52,119,58.45,181.82,89.92,37-35.16,76.34-70.94,113.74-108.71,20.6-20.77,39.48-29.76,63-5.57,87.93,92,176.51,183.34,262.92,276.76,12.41,13.4,14.12,36.78,23.2,62.32l685.63,96.3-.45,6.66H2740.66c-286.12.44-572.25,2.24-858.36,0-29.68,0-64.39-19.07-87.86-39.48-265.79-231.45-600.65-274.34-908.17-113.74C599.7,681.71,432.72,1013.42,481,1337.39c48.1,322.54,299.15,592.3,613.78,654.43,276,54.58,516-18.61,720.87-211.31,16.19-15.29,41.73-29,62.95-29.14,356.7-2.16,438.44-2.06,795.15-2.33,6.56,0-227.77,80.93-488.26,118-.63,7.73-2.69,12.59-1.08,14.84,51.7,69.87,55.21,73.19-6.2,136.22-71.94,73.38-150.08,140.19-225.43,209.87-32.82,30.39-59.43,29.31-89.91-7.19S1792.1,2155.29,1759.11,2124.36Z" transform="translate(-5.76 -1.48)"/><path class="cls-1" d="M1412.74,1926.54a712.69,712.69,0,0,1-741.83-261.66c-190-251.77-200.06-588.43-28.41-845.24,168.24-251.77,485.56-375.85,770-299.42-210.68-20.05-397.17,36.41-554.88,177.5s-236.13,320.65-236.22,531.6C621,1609.22,956.94,1976.44,1412.74,1926.54Z" transform="translate(-5.76 -1.48)"/><path class="cls-1" d="M1289.64,1038.42a79.54,79.54,0,0,1-23.74,45,1280.77,1280.77,0,0,1-146.48,120.4c-34.88,24.46-54.67,18.79-82.45-13.58a221.54,221.54,0,0,1-37.59-52.78c-15.73-35.52-9-62,21-87.22q57-47.66,114.92-94.06c31.74-25.53,64-25.35,95.67.81,14.12,11.69,27.79,24,40.73,36.95A60.42,60.42,0,0,1,1289.64,1038.42Z" transform="translate(-5.76 -1.48)"/><path class="cls-1" d="M948.67,1579.81a68.88,68.88,0,0,1-48.82-15.73,198.39,198.39,0,0,1-63-103.14c-6.38-24.82,6.57-42.44,29.49-52A1304.15,1304.15,0,0,0,992.28,1346c40.46-22.12,71.21-16.37,100.62,19a452.74,452.74,0,0,1,39.92,55.48c17.26,28.68,13.4,58.53-13.67,77.6A715.74,715.74,0,0,1,963.06,1579,30.37,30.37,0,0,1,948.67,1579.81Z" transform="translate(-5.76 -1.48)"/><path class="cls-1" d="M1005.86,1244.87c-2.43,27.6-11.6,45.59-29,54.76-41.54,21.94-80.3,48.82-124.62,65.55-29.67,11.24-49.82,4.67-64.92-23a218,218,0,0,1-23.83-91.27c-2.7-40.73,9-55.75,46.76-73.37,28.32-13.13,55.75-28.06,83.35-42.63,18-9.62,37.05-15.28,54,.54A212.58,212.58,0,0,1,1005.86,1244.87Z" transform="translate(-5.76 -1.48)"/><path class="cls-1" d="M910.36,928.45c2.07-39.39,87.14-116.27,119.77-115.73,29,.45,83.45,40,92.44,66.81a39,39,0,0,1-11.78,42.17,880.72,880.72,0,0,1-116.27,96c-18.88,12.76-40.19,12-53.95-8.37C922.86,982.4,910.9,952.91,910.36,928.45Z" transform="translate(-5.76 -1.48)"/><path class="cls-1" d="M1163.31,844.37c-37.41-11.51-71.94-28.59-97-59-9-10.61-5.49-22.39,3-32.37,10.07-11.78,20.86-23,30.39-35.24,16.28-20.78,30.21-45,61-46.67,40.73-1.89,81.73-2.61,120,15.19,15.91,7.38,23,20.15,13,36a547.56,547.56,0,0,1-89.11,106.82A58.78,58.78,0,0,1,1163.31,844.37Z" transform="translate(-5.76 -1.48)"/><path class="cls-1" d="M1791.92,778.28a191.61,191.61,0,0,1-17.44,68c-8.18,20.86-27,29.22-45,18.88-41.09-24.36-84-48-111.14-89.11a42.42,42.42,0,0,1-6.2-36.41c9-27.52,19.6-54,21-83.8.63-14.21,12.59-14.93,22.66-10.44a319.72,319.72,0,0,1,129.48,98.91A42.15,42.15,0,0,1,1791.92,778.28Z" transform="translate(-5.76 -1.48)"/><path class="cls-1" d="M752,1065.39c1.44-12.59,2.07-25.35,4.58-37.67a128.59,128.59,0,0,1,101.07-98.91,22.84,22.84,0,0,1,26.53,14.65,266,266,0,0,1,26.26,85.16c4,30.48-9,54-37.5,69.24a818.73,818.73,0,0,1-78.76,39.74c-22.48,9-34.71,1.53-40-21.31A200.45,200.45,0,0,1,752,1065.39Z" transform="translate(-5.76 -1.48)"/><path class="cls-1" d="M1447.45,572.19c43,7,86.5,13.49,124.35,39.2,16,10.79,22.4,23.29,18.62,41.09a320,320,0,0,1-9,34.08c-13.22,41.55-31.83,52.87-74.27,40.11a509.38,509.38,0,0,1-94.59-38.22c-20.77-11.15-28.24-27.42-20.14-49.9a114.93,114.93,0,0,0,9.8-33.63C1403,574.26,1418.14,565,1447.45,572.19Z" transform="translate(-5.76 -1.48)"/><path class="cls-1" d="M758.68,1357.54c-1.89,19.24-4.59,34.35-24,38.57-24.73,5.4-56.56-6.2-64.92-26.07-21-50.26-24.91-103.41-24.82-156.91,0-10.52,4.32-20.32,19.06-11.24a27.93,27.93,0,0,0,15.56,4.94c43.79-3.86,55.48,24.91,61.77,58.09S757.86,1328,758.68,1357.54Z" transform="translate(-5.76 -1.48)"/><path class="cls-1" d="M1239.65,657.79c-15.92-2.07-35.25-3.77-54-7.1-11-1.89-28.6,0-27.61-15.74,1.08-18-1.8-41.81,18.53-50.53a302.54,302.54,0,0,1,163-18c12.32,1.8,18,9.89,17.26,23.47-1.44,47.57-26.35,71.93-74.72,70.05C1268.87,659.77,1256,658.69,1239.65,657.79Z" transform="translate(-5.76 -1.48)"/><path class="cls-1" d="M731.7,1438.46c41.09-2.16,66.18,19.07,84.44,51.17,15.64,27.42,33.45,53.95,45,83.35,9,23,1.35,36-23.28,36s-46.94-4.76-62.23-24.46c-36-46.49-67.61-95.31-86-151.24C691.24,1432,719.38,1439.09,731.7,1438.46Z" transform="translate(-5.76 -1.48)"/><path class="cls-1" d="M736.91,1049.48c-2.69,31.29-1.35,62.94-14.21,93-8.36,19.42-21.31,21.67-39.83,18.43s-30.21-12-29.4-32.28a386.86,386.86,0,0,1,37.67-145.67c9-20.32,21.94-7.73,34.17-7,13.94.72,16.46,7.55,15.11,19.61C738.44,1013.42,738,1031.49,736.91,1049.48Z" transform="translate(-5.76 -1.48)"/><path class="cls-1" d="M858.93,1642.58c47.57-2.7,83.45,19.78,116.9,48.73,15.65,13.4,67.52,54.76,61.59,62.94a36.73,36.73,0,0,1-30.57,10.88c-25.27-1.52-44-17.44-62.94-29.4a513.83,513.83,0,0,1-115-91C827.19,1643.21,848.32,1643.21,858.93,1642.58Z" transform="translate(-5.76 -1.48)"/><path class="cls-1" d="M698.52,1433.34" transform="translate(-5.76 -1.48)"/></svg>