<?xml version="1.0" encoding="utf-8"?>
<!-- Generator: Adobe Illustrator 24.1.2, SVG Export Plug-In . SVG Version: 6.00 Build 0)  -->
<svg version="1.1" id="Layer_1" xmlns="http://www.w3.org/2000/svg" xmlns:xlink="http://www.w3.org/1999/xlink" x="0px" y="0px"
	 viewBox="0 0 2337 234.29" style="enable-background:new 0 0 2337 234.29;" xml:space="preserve">
<style type="text/css">
	.st0{fill:url(#SVGID_1_);}
	.st1{fill:url(#SVGID_2_);}
	.st2{fill:url(#SVGID_3_);}
	.st3{fill:url(#SVGID_4_);}
	.st4{fill:url(#SVGID_5_);}
	.st5{fill:url(#SVGID_6_);}
	.st6{fill:url(#SVGID_7_);}
	.st7{fill:url(#SVGID_8_);}
	.st8{fill:url(#SVGID_9_);}
	.st9{fill:url(#SVGID_10_);}
	.st10{fill:url(#SVGID_11_);}
	.st11{fill:url(#SVGID_12_);}
	.st12{fill:url(#SVGID_13_);}
	.st13{fill:url(#SVGID_14_);}
	.st14{fill:url(#SVGID_15_);}
	.st15{fill:url(#SVGID_16_);}
	.st16{fill:url(#SVGID_17_);}
</style>
<g>
	<linearGradient id="SVGID_1_" gradientUnits="userSpaceOnUse" x1="-198.7074" y1="87.0546" x2="1774.938" y2="232.4222">
		<stop  offset="3.249952e-07" style="stop-color:#FDB920"/>
		<stop  offset="1" style="stop-color:#E1263E"/>
	</linearGradient>
	<path class="st0" d="M148.27,131.58c-9.05,15.33-21.3,26.98-36.78,34.95l32.88,39.32h-27.14l-25.98-31.73
		c-7.36,1.99-15.4,2.99-24.14,2.99c-13.34,0-25.07-2.8-35.19-8.4c-10.1-5.59-17.96-13.45-23.56-23.57
		c-5.6-10.11-8.39-21.68-8.39-34.72c0-18.08,4.09-34.52,12.3-49.32c8.2-14.8,19.5-26.45,33.91-34.95
		c14.4-8.51,30.51-12.77,48.29-12.77c13.49,0,25.33,2.8,35.53,8.4c10.18,5.6,18.04,13.42,23.56,23.45
		c5.52,10.04,8.28,21.58,8.28,34.6C161.84,99,157.32,116.24,148.27,131.58z M34.57,145.02c8.66,8.81,20.5,13.22,35.53,13.22
		c13.49,0,25.57-3.49,36.22-10.47s18.97-16.36,24.96-28.16c5.97-11.8,8.97-24.6,8.97-38.4c0-15.17-4.38-27.13-13.1-35.86
		c-8.74-8.74-20.63-13.11-35.65-13.11c-13.49,0-25.55,3.49-36.2,10.47c-10.67,6.98-18.94,16.33-24.84,28.05s-8.85,24.48-8.85,38.28
		C21.58,124.21,25.91,136.21,34.57,145.02z"/>
	<linearGradient id="SVGID_2_" gradientUnits="userSpaceOnUse" x1="-198.0989" y1="78.793" x2="1775.5464" y2="224.1606">
		<stop  offset="3.249952e-07" style="stop-color:#FDB920"/>
		<stop  offset="1" style="stop-color:#E1263E"/>
	</linearGradient>
	<path class="st1" d="M314.98,49.49l-22.31,126h-20.91l3.21-18.4c-5.05,6.44-11.48,11.42-19.31,14.95
		c-7.81,3.52-15.94,5.28-24.36,5.28c-13.2,0-23.74-3.56-31.63-10.69c-7.89-7.13-11.84-17.36-11.84-30.7c0-3.37,0.38-7.59,1.15-12.65
		l13.1-73.8h20.69l-12.41,71.04c-0.61,3.22-0.91,6.59-0.91,10.12c0,9.35,2.57,16.44,7.7,21.27c5.13,4.83,12.3,7.24,21.49,7.24
		c11.03,0,20.43-3.45,28.16-10.35c7.75-6.9,12.69-16.94,14.84-30.12v0.69l12.41-69.9H314.98z"/>
	<linearGradient id="SVGID_3_" gradientUnits="userSpaceOnUse" x1="-197.2567" y1="67.3577" x2="1776.3887" y2="212.7253">
		<stop  offset="3.249952e-07" style="stop-color:#FDB920"/>
		<stop  offset="1" style="stop-color:#E1263E"/>
	</linearGradient>
	<path class="st2" d="M350.97,78.11c6.96-9.73,15.48-17.27,25.52-22.65c10.04-5.36,20.72-8.04,32.08-8.04
		c11.03,0,20.14,2.37,27.36,7.13c7.2,4.75,12.17,10.73,14.95,17.93l4.14-22.99h21.14l-22.29,126h-21.16l4.36-23.46
		c-5.52,7.36-12.8,13.46-21.84,18.28c-9.05,4.83-19.01,7.24-29.88,7.24c-9.82,0-18.48-2.1-25.98-6.32
		c-7.52-4.22-13.34-10.23-17.48-18.05c-4.14-7.82-6.21-16.86-6.21-27.13c0-4.6,0.47-9.28,1.38-14.03
		C339.36,99.15,344,87.85,350.97,78.11z M444.9,101.91c0-11.19-3.34-20.04-10.01-26.56c-6.67-6.51-15.14-9.77-25.41-9.77
		c-7.81,0-15.29,1.84-22.42,5.52c-7.12,3.68-13.22,9.05-18.27,16.09c-5.07,7.05-8.44,15.33-10.12,24.84
		c-0.63,3.22-0.93,6.74-0.93,10.57c0,11.35,3.3,20.28,9.9,26.79c6.59,6.51,15.01,9.77,25.29,9.77c7.81,0,15.28-1.88,22.42-5.63
		c7.12-3.75,13.25-9.2,18.38-16.33c5.15-7.13,8.55-15.44,10.23-24.95C444.59,109.04,444.9,105.59,444.9,101.91z"/>
	<linearGradient id="SVGID_4_" gradientUnits="userSpaceOnUse" x1="-195.0728" y1="37.7079" x2="1778.5725" y2="183.0755">
		<stop  offset="3.249952e-07" style="stop-color:#FDB920"/>
		<stop  offset="1" style="stop-color:#E1263E"/>
	</linearGradient>
	<path class="st3" d="M546.05,5.34l-30.12,170.15h-20.91L525.14,5.34H546.05z"/>
	<linearGradient id="SVGID_5_" gradientUnits="userSpaceOnUse" x1="-194.5836" y1="31.065" x2="1779.0618" y2="176.4326">
		<stop  offset="3.249952e-07" style="stop-color:#FDB920"/>
		<stop  offset="1" style="stop-color:#E1263E"/>
	</linearGradient>
	<path class="st4" d="M600.55,49.49l-22.31,126h-20.91l22.29-126H600.55z M585.49,25.69c-2.23-2.22-3.34-5.02-3.34-8.39
		c0-4.6,1.68-8.55,5.05-11.84c3.38-3.3,7.28-4.94,11.74-4.94c3.51,0,6.35,1.07,8.5,3.22c2.15,2.15,3.22,4.98,3.22,8.51
		c0,4.6-1.7,8.55-5.07,11.84c-3.37,3.3-7.28,4.95-11.72,4.95C590.51,29.02,587.71,27.92,585.49,25.69z"/>
	<linearGradient id="SVGID_6_" gradientUnits="userSpaceOnUse" x1="-194.7486" y1="33.3063" x2="1778.8967" y2="178.674">
		<stop  offset="3.249952e-07" style="stop-color:#FDB920"/>
		<stop  offset="1" style="stop-color:#E1263E"/>
	</linearGradient>
	<path class="st5" d="M651.36,141c-0.47,2.3-0.69,4.3-0.69,5.98c0,3.83,1.19,6.59,3.56,8.28c2.37,1.68,6.26,2.53,11.61,2.53h15.41
		l-3.22,17.71h-18.85c-9.98,0-17.45-1.92-22.42-5.75c-4.99-3.83-7.47-10.11-7.47-18.85c0-3.37,0.3-6.66,0.91-9.89l13.1-74.27h-16.09
		l2.98-17.24h16.33l5.52-31.73h21.16l-5.52,31.73h32.66l-3,17.24h-32.88L651.36,141z"/>
	<linearGradient id="SVGID_7_" gradientUnits="userSpaceOnUse" x1="-197.4911" y1="70.5407" x2="1776.1543" y2="215.9083">
		<stop  offset="3.249952e-07" style="stop-color:#FDB920"/>
		<stop  offset="1" style="stop-color:#E1263E"/>
	</linearGradient>
	<path class="st6" d="M739.66,49.49l21.4,101.63L818.3,49.49h21.62L731.38,234.81h-21.84l35.64-60.7L716.43,49.49H739.66z"/>
	<linearGradient id="SVGID_8_" gradientUnits="userSpaceOnUse" x1="-192.8152" y1="7.0562" x2="1780.8302" y2="152.4238">
		<stop  offset="3.249952e-07" style="stop-color:#FDB920"/>
		<stop  offset="1" style="stop-color:#E1263E"/>
	</linearGradient>
	<path class="st7" d="M1109.16,16.38l-28.05,159.11h-20.91l20.91-118.65l-73.81,118.65h-14.71L960.4,57.31l-20.93,118.18h-20.91
		l28.28-159.11h22.53L1005,147.89l81.86-131.52H1109.16z"/>
	<linearGradient id="SVGID_9_" gradientUnits="userSpaceOnUse" x1="-193.0026" y1="9.5998" x2="1780.6428" y2="154.9675">
		<stop  offset="3.249952e-07" style="stop-color:#FDB920"/>
		<stop  offset="1" style="stop-color:#E1263E"/>
	</linearGradient>
	<path class="st8" d="M1139.39,78.11c6.98-9.73,15.48-17.27,25.52-22.65c10.04-5.36,20.74-8.04,32.08-8.04
		c11.03,0,20.16,2.37,27.36,7.13c7.2,4.75,12.19,10.73,14.95,17.93l4.14-22.99h21.16l-22.31,126h-21.16l4.38-23.46
		c-5.52,7.36-12.82,13.46-21.84,18.28c-9.05,4.83-19.02,7.24-29.9,7.24c-9.82,0-18.48-2.1-25.98-6.32
		c-7.51-4.22-13.33-10.23-17.48-18.05c-4.14-7.82-6.21-16.86-6.21-27.13c0-4.6,0.47-9.28,1.38-14.03
		C1127.78,99.15,1132.42,87.85,1139.39,78.11z M1233.32,101.91c0-11.19-3.34-20.04-10.01-26.56c-6.66-6.51-15.14-9.77-25.41-9.77
		c-7.81,0-15.29,1.84-22.41,5.52c-7.14,3.68-13.23,9.05-18.28,16.09c-5.07,7.05-8.44,15.33-10.12,24.84
		c-0.61,3.22-0.91,6.74-0.91,10.57c0,11.35,3.29,20.28,9.88,26.79c6.59,6.51,15.03,9.77,25.29,9.77c7.83,0,15.29-1.88,22.42-5.63
		c7.12-3.75,13.25-9.2,18.4-16.33c5.13-7.13,8.53-15.44,10.23-24.95C1233.01,109.04,1233.32,105.59,1233.32,101.91z"/>
	<linearGradient id="SVGID_10_" gradientUnits="userSpaceOnUse" x1="-190.8187" y1="-20.0506" x2="1782.8267" y2="125.3171">
		<stop  offset="3.249952e-07" style="stop-color:#FDB920"/>
		<stop  offset="1" style="stop-color:#E1263E"/>
	</linearGradient>
	<path class="st9" d="M1334.04,112.49l48.28,63h-28.5l-39.55-55.41l-9.9,55.41h-20.91l30.12-170.15h20.91l-17.71,99.79l58.41-55.64
		h28.97L1334.04,112.49z"/>
	<linearGradient id="SVGID_11_" gradientUnits="userSpaceOnUse" x1="-191.5493" y1="-10.1316" x2="1782.0961" y2="135.2361">
		<stop  offset="3.249952e-07" style="stop-color:#FDB920"/>
		<stop  offset="1" style="stop-color:#E1263E"/>
	</linearGradient>
	<path class="st10" d="M1512.1,53.51c7.75,4.06,13.65,9.74,17.71,17.01c4.06,7.28,6.09,15.6,6.09,24.95c0,3.22-0.38,7.13-1.14,11.72
		c-0.63,3.99-1.62,8.13-3,12.42h-100.71c-0.3,3.06-0.47,5.28-0.47,6.66c0,10.58,3.19,18.82,9.54,24.72
		c6.37,5.9,14.68,8.85,24.96,8.85c9.05,0,16.97-2.1,23.8-6.32c6.82-4.22,11.98-9.85,15.51-16.9h22.53
		c-5.52,12.12-13.99,21.97-25.41,29.55c-11.42,7.59-24.64,11.38-39.66,11.38c-15.78,0-28.47-4.56-38.06-13.68
		c-9.58-9.12-14.37-21.57-14.37-37.36c0-4.44,0.47-9.2,1.38-14.26c2.31-13.02,6.98-24.44,14.03-34.26
		c7.04-9.81,15.75-17.36,26.1-22.65c10.34-5.29,21.57-7.93,33.68-7.93C1495.21,47.42,1504.37,49.45,1512.1,53.51z M1514.3,95.93
		c0-9.81-3.11-17.39-9.32-22.76c-6.21-5.36-14.29-8.05-24.25-8.05c-10.75,0-20.47,3.49-29.21,10.47
		c-8.74,6.98-14.64,16.59-17.71,28.85h79.79C1514.06,101.37,1514.3,98.54,1514.3,95.93z"/>
	<linearGradient id="SVGID_12_" gradientUnits="userSpaceOnUse" x1="-190.8259" y1="-19.953" x2="1782.8195" y2="125.4147">
		<stop  offset="3.249952e-07" style="stop-color:#FDB920"/>
		<stop  offset="1" style="stop-color:#E1263E"/>
	</linearGradient>
	<path class="st11" d="M1567.87,168.13c-8.44-6.28-12.64-14.72-12.64-25.29c0-2,0.06-3.46,0.22-4.37h20.47
		c-0.61,6.59,1.35,11.96,5.87,16.09c4.51,4.14,11.07,6.21,19.65,6.21c8.58,0,15.53-1.64,20.82-4.94c5.28-3.3,7.92-7.94,7.92-13.91
		c0-5.06-2.15-9.05-6.43-11.96c-4.3-2.91-10.89-6.05-19.78-9.43c-7.81-2.9-14.26-5.67-19.31-8.28c-5.07-2.61-9.35-6.24-12.88-10.92
		c-3.53-4.68-5.29-10.61-5.29-17.82c0-7.05,2.04-13.34,6.09-18.85c4.06-5.52,9.74-9.77,17.02-12.76c7.28-2.99,15.59-4.48,24.94-4.48
		c12.88,0,23.46,3.22,31.74,9.66s12.41,14.87,12.41,25.29c0,1.99-0.08,3.53-0.22,4.6h-20.02l0.24-2.76c0-6.13-2.34-10.99-7.03-14.6
		c-4.67-3.6-10.84-5.41-18.51-5.41c-7.51,0-13.68,1.68-18.51,5.06c-4.83,3.37-7.23,7.89-7.23,13.56c0,5.36,2.21,9.58,6.67,12.65
		c4.44,3.07,11.34,6.44,20.69,10.12c7.81,3.06,14.1,5.86,18.85,8.39c4.75,2.53,8.82,6.02,12.19,10.47
		c3.37,4.44,5.07,10.04,5.07,16.78c0,7.35-2.2,13.79-6.56,19.31s-10.39,9.74-18.04,12.65c-7.67,2.91-16.33,4.37-25.98,4.37
		C1587.12,177.56,1576.31,174.41,1567.87,168.13z"/>
	<linearGradient id="SVGID_13_" gradientUnits="userSpaceOnUse" x1="-188.3349" y1="-53.7729" x2="1785.3105" y2="91.5948">
		<stop  offset="3.249952e-07" style="stop-color:#FDB920"/>
		<stop  offset="1" style="stop-color:#E1263E"/>
	</linearGradient>
	<path class="st12" d="M1882.87,15.23l-2.98,16.32h-43.69l-25.29,143.94h-20.93l25.29-143.94h-43.67l2.98-16.32H1882.87z"/>
	<linearGradient id="SVGID_14_" gradientUnits="userSpaceOnUse" x1="-189.0098" y1="-44.61" x2="1784.6356" y2="100.7577">
		<stop  offset="3.249952e-07" style="stop-color:#FDB920"/>
		<stop  offset="1" style="stop-color:#E1263E"/>
	</linearGradient>
	<path class="st13" d="M1944.27,54.08c7.67-4.6,16.39-6.9,26.21-6.9l-3.91,21.61h-5.52c-10.87,0-19.97,2.92-27.25,8.74
		s-12.14,15.63-14.6,29.43l-12.19,68.52h-20.91l22.29-126h20.93l-4.14,23.91C1930.23,65.12,1936.6,58.69,1944.27,54.08z"/>
	<linearGradient id="SVGID_15_" gradientUnits="userSpaceOnUse" x1="-188.4047" y1="-52.8251" x2="1785.2407" y2="92.5425">
		<stop  offset="3.249952e-07" style="stop-color:#FDB920"/>
		<stop  offset="1" style="stop-color:#E1263E"/>
	</linearGradient>
	<path class="st14" d="M2111.65,49.49l-22.31,126h-20.93l3.22-18.4c-5.05,6.44-11.5,11.42-19.31,14.95
		c-7.81,3.52-15.94,5.28-24.38,5.28c-13.18,0-23.72-3.56-31.61-10.69c-7.89-7.13-11.84-17.36-11.84-30.7
		c0-3.37,0.38-7.59,1.14-12.65l13.12-73.8h20.69l-12.41,71.04c-0.63,3.22-0.93,6.59-0.93,10.12c0,9.35,2.57,16.44,7.71,21.27
		c5.13,4.83,12.3,7.24,21.49,7.24c11.03,0,20.43-3.45,28.16-10.35c7.75-6.9,12.69-16.94,14.84-30.12v0.69l12.41-69.9H2111.65z"/>
	<linearGradient id="SVGID_16_" gradientUnits="userSpaceOnUse" x1="-187.7256" y1="-62.0457" x2="1785.9198" y2="83.3219">
		<stop  offset="3.249952e-07" style="stop-color:#FDB920"/>
		<stop  offset="1" style="stop-color:#E1263E"/>
	</linearGradient>
	<path class="st15" d="M2142.46,168.13c-8.44-6.28-12.64-14.72-12.64-25.29c0-2,0.06-3.46,0.22-4.37h20.47
		c-0.61,6.59,1.35,11.96,5.87,16.09c4.51,4.14,11.07,6.21,19.65,6.21c8.58,0,15.53-1.64,20.82-4.94c5.28-3.3,7.92-7.94,7.92-13.91
		c0-5.06-2.15-9.05-6.43-11.96c-4.3-2.91-10.89-6.05-19.78-9.43c-7.81-2.9-14.26-5.67-19.31-8.28c-5.07-2.61-9.35-6.24-12.88-10.92
		c-3.53-4.68-5.29-10.61-5.29-17.82c0-7.05,2.04-13.34,6.09-18.85s9.74-9.77,17.02-12.76c7.28-2.99,15.59-4.48,24.94-4.48
		c12.88,0,23.46,3.22,31.74,9.66c8.28,6.44,12.41,14.87,12.41,25.29c0,1.99-0.08,3.53-0.22,4.6h-20.02l0.24-2.76
		c0-6.13-2.34-10.99-7.02-14.6c-4.67-3.6-10.84-5.41-18.51-5.41c-7.51,0-13.68,1.68-18.51,5.06c-4.83,3.37-7.23,7.89-7.23,13.56
		c0,5.36,2.21,9.58,6.67,12.65c4.44,3.07,11.34,6.44,20.69,10.12c7.81,3.06,14.1,5.86,18.85,8.39c4.75,2.53,8.82,6.02,12.19,10.47
		c3.37,4.44,5.07,10.04,5.07,16.78c0,7.35-2.2,13.79-6.56,19.31s-10.39,9.74-18.04,12.65c-7.67,2.91-16.33,4.37-25.98,4.37
		C2161.71,177.56,2150.9,174.41,2142.46,168.13z"/>
	<linearGradient id="SVGID_17_" gradientUnits="userSpaceOnUse" x1="-185.9179" y1="-86.5885" x2="1787.7275" y2="58.7792">
		<stop  offset="3.249952e-07" style="stop-color:#FDB920"/>
		<stop  offset="1" style="stop-color:#E1263E"/>
	</linearGradient>
	<path class="st16" d="M2288,141c-0.47,2.3-0.69,4.3-0.69,5.98c0,3.83,1.19,6.59,3.56,8.28s6.26,2.53,11.61,2.53h15.41l-3.22,17.71
		h-18.85c-9.98,0-17.45-1.92-22.42-5.75c-4.99-3.83-7.47-10.11-7.47-18.85c0-3.37,0.3-6.66,0.91-9.89l13.1-74.27h-16.09l2.98-17.24
		h16.33l5.52-31.73h21.16l-5.52,31.73h32.66l-3,17.24h-32.88L2288,141z"/>
</g>
</svg>
