<svg id="Layer_1" data-name="Layer 1" xmlns="http://www.w3.org/2000/svg" xmlns:xlink="http://www.w3.org/1999/xlink" viewBox="0 0 997.46 271.57"><defs><style>.cls-1{fill:url(#linear-gradient);}.cls-2{fill:url(#linear-gradient-2);}.cls-3{fill:url(#linear-gradient-3);}.cls-4{fill:url(#linear-gradient-4);}.cls-5{fill:url(#linear-gradient-5);}.cls-6{fill:url(#linear-gradient-6);}.cls-7{fill:url(#linear-gradient-7);}.cls-8{fill:url(#linear-gradient-8);}.cls-9{fill:url(#linear-gradient-9);}.cls-10{fill:#58595b;}.cls-11{fill:url(#radial-gradient);}.cls-12{fill:#349ac3;}</style><linearGradient id="linear-gradient" x1="4626.57" y1="4519.87" x2="4757.65" y2="4519.87" gradientUnits="userSpaceOnUse"><stop offset="0" stop-color="#282d69"/><stop offset="1" stop-color="#00619f"/></linearGradient><linearGradient id="linear-gradient-2" x1="4143.08" y1="4519.84" x2="4265.68" y2="4519.84" gradientUnits="userSpaceOnUse"><stop offset="0" stop-color="#fdb920"/><stop offset="1" stop-color="#e1263e"/></linearGradient><linearGradient id="linear-gradient-3" x1="4241.47" y1="4480.13" x2="4331.38" y2="4570.03" xlink:href="#linear-gradient-2"/><linearGradient id="linear-gradient-4" x1="4368.6" y1="4519.87" x2="4499.75" y2="4519.87" xlink:href="#linear-gradient"/><linearGradient id="linear-gradient-5" x1="4487.19" y1="4519.87" x2="4621.87" y2="4519.87" xlink:href="#linear-gradient"/><linearGradient id="linear-gradient-6" x1="4766.23" y1="4519.87" x2="4895.01" y2="4519.87" xlink:href="#linear-gradient"/><linearGradient id="linear-gradient-7" x1="4881.6" y1="4519.87" x2="5016.4" y2="4519.87" xlink:href="#linear-gradient"/><linearGradient id="linear-gradient-8" x1="4227.84" y1="4362.4" x2="4560.62" y2="4629.11" gradientTransform="matrix(-1, 0, 0, 1, 8585.37, 0)" xlink:href="#linear-gradient"/><linearGradient id="linear-gradient-9" x1="4076.28" y1="4518.72" x2="4175.48" y2="4518.72" gradientUnits="userSpaceOnUse"><stop offset="0" stop-color="#2e2f33"/><stop offset="1" stop-color="#90999b"/></linearGradient><radialGradient id="radial-gradient" cx="4038.74" cy="4489.58" r="190.29" gradientUnits="userSpaceOnUse"><stop offset="0" stop-color="#0077be"/><stop offset="0.82" stop-color="#282d69"/></radialGradient></defs><path class="cls-1" d="M4658.73,4564.9c-12,0-21.18-3.91-27.42-11.8-5.69-8.37-6.25-18.75-1.69-31.28l1.73-4.77c4.74-13,13.95-23.88,27.63-32.74,11-6.29,21.84-9.47,32.53-9.47h34.16q17.33,0,26.64,10.75,9.54,12.83,2.06,33.3l-1.33,3.66q-6.1,16.77-22.06,29c-6.6,4.7-12.17,7.76-16.8,9.22a62.17,62.17,0,0,1-21.29,4.1Zm-2.9-43.08q-4.66,12.84,4.77,18.15a20.16,20.16,0,0,0,7.31,1.4h32.63c8.68,0,16.15-3.91,22.44-11.79a43.9,43.9,0,0,0,4.52-8.55c4.11-11.31,2.46-18.52-5-21.75a21.88,21.88,0,0,0-6.33-.92h-32.63c-7.39,0-14,3.05-20,9.22a34,34,0,0,0-6.77,11.55Z" transform="translate(-4018.94 -4382.93)"/><path class="cls-2" d="M4143.08,4563.68l1.32-3.61c1.28-3.54,4-7.33,8.23-11.36,8.1-6.66,13.68-8.56,22.54-8.56h21.76c11.24,0,21.94-7.58,26.46-20l16.07-44.18h26.22l-16.54,45.46q-7.14,19.62-27.63,32.75c-10.91,6.3-21.78,9.48-32.47,9.48Z" transform="translate(-4018.94 -4382.93)"/><path class="cls-3" d="M4252.1,4563.68l28.35-77.91c1.45-4,4.67-7,9.73-9.1a10.74,10.74,0,0,1,3.52-.61h16.62L4287,4540.15h64.34l-.46,1.28q-3.24,8.89-14.45,16.87c-6.14,3.6-11.43,5.38-15.89,5.38Z" transform="translate(-4018.94 -4382.93)"/><path class="cls-4" d="M4400.58,4563.68c-12,0-21.06-3.92-27.23-11.68q-8.46-12.73-1.86-30.79l.84-2.32q7.24-19.89,27.52-33.12,16.45-9.7,32.62-9.71h67.28l-1.31,3.6c-1.29,3.55-4,7.33-8.23,11.37-8.05,6.66-13.69,8.55-22.73,8.55h-42.84c-12.83,0-22.21,8.31-26.72,20.71-4.12,11.31-.08,19.86,11.83,19.86h41.56l3-8.19h-42.17c-.18,0-.28-.06-.21-.24l1.22-3.36c1.93-5.32,6.28-10.39,13.11-15.22,5.48-3.11,10.21-4.7,14.24-4.7h48.46l-20.1,55.24Z" transform="translate(-4018.94 -4382.93)"/><path class="cls-5" d="M4573.63,4563.68l-11.79-19.31H4520.4l-7,19.24h-26.21l12.16-33.42c1.44-4,4.53-8.25,9.21-12.71,7.12-6.29,14.87-9.47,23.18-9.47h1.9l-4.67,12.83h49.74a14.16,14.16,0,0,0,11.89-5.8,17.45,17.45,0,0,0,2.2-4l.62-1.71c1.74-4.77.67-7.89-3.25-9.35a6,6,0,0,0-2.44-.37h-51c-7,0-11.7-1.28-14.06-3.85-4.88-3.72-6.71-11.12-3.6-19.67h77.55c20,0,30.48,13.13,22.7,34.52q-6.68,18.33-25.52,28.29h-.12l0,.12,14.71,24.56-.05.13Z" transform="translate(-4018.94 -4382.93)"/><path class="cls-6" d="M4807.73,4563.68c-14.36,0-25.79-4-34.43-12-7.34-8.37-9-18.15-4.86-29.45l12.85-35.32c1.72-4.7,5.59-8.12,11.61-10.39a12.27,12.27,0,0,1,3.15-.42h14.72l-15.87,43.62c-2.47,6.78-1.54,12.1,2.91,15.83,4.3,3.48,10.21,5.19,17.73,5.19a51.15,51.15,0,0,0,25.76-7.15c6-3.91,9.85-8.25,11.6-13.07l11-30.25c1.82-5,4.2-8.49,7.14-10.38a15.86,15.86,0,0,1,9.48-3.37H4895l-16.59,45.59q-7.11,19.52-29.89,32.07c-12.88,6.36-25.4,9.54-37.69,9.54Z" transform="translate(-4018.94 -4382.93)"/><path class="cls-7" d="M4881.6,4563.68l12.19-33.49c1.44-4,4.53-8.25,9.21-12.71,7.12-6.29,14.87-9.47,23.18-9.47h1.9l-4.67,12.83h49.92a14.22,14.22,0,0,0,11.6-5.5,22.53,22.53,0,0,0,2.77-5.25q2.63-7.24-2-9.72c-.19-.3-1.14-.54-2.76-.79-33.31,0-18.74-.06-52.7-.12-7.76,0-12.87-2.08-15.45-6.23-3.63-5.32-3.62-10.88-1.33-17.17h77.79c11.43,0,19.31,4.21,23.51,12.64,2.31,6.24,2.15,13.08-.54,20.47l-.94,2.57q-5.4,14.85-21.22,25.05a51,51,0,0,1-26.46,7.58h-50.79l-7,19.31Z" transform="translate(-4018.94 -4382.93)"/><path class="cls-8" d="M4214,4619c-10.42,3.78-21,7.45-31.37,11.53a7.43,7.43,0,0,0-4,4.84c-.71,4.8-.22,9.77-.88,14.58-.24,1.71-2.41,4.52-3.7,4.52-14.34,0-28.68-.48-43-.79-3.69-.08-5-2.19-4.24-5.41,3.23-13.93-2.33-21.52-16.24-24.12a26.65,26.65,0,0,1-11.35-5.53c-5.67-4.6-9.26-2.53-13.68,1.9-10.44,10.46-10.91,10.58-21.46.3-7.4-7.21-13.9-15.36-20.79-23.12-2.79-3.14-2.47-5.72.85-8.57,4.31-3.71,8.14-8,11.42-11.22-4.06-11.4-7.75-22.15-11.83-32.75a7.12,7.12,0,0,0-4.69-3.63,33.77,33.77,0,0,0-10.14-.23c-6.63.8-10.13-1.59-9.88-8.51q.71-19,1.48-38c.15-3.91,2-5.47,6.09-5.21,5.68.37,12.63,2,16.76-.51,3.69-2.29,4.08-9.66,6.32-14.6,2.44-5.39,5.6-10.47,7.89-15.92a7.66,7.66,0,0,0-.73-6.29,42.14,42.14,0,0,0-8.2-8.82c-4.57-3.64-3.95-7.05-.3-10.52,9.34-8.88,18.83-17.62,28.22-26.46,3.12-2.94,5.56-2.62,8.54.55,3.89,4.15,8.36,7.77,12.2,11.27,10.61-3.72,21.77-7.51,32.79-11.67,1.38-.53,2.72-3,2.87-4.64.44-4.84-.05-9.78.51-14.6.19-1.67,2.38-4.46,3.66-4.46,14.13,0,28.27.4,42.41.67,4.64.08,5.44,2.78,5.25,6.77-.25,5.46-1.95,12.12.5,16.06,2.22,3.56,9.3,3.92,14.05,6.1,6.7,3.06,13.23,6.5,20.22,10,4.12-3.91,8.49-7.89,12.65-12.09,2.29-2.31,4.39-3.31,7-.62,9.78,10.23,19.63,20.39,29.24,30.78,1.38,1.49,1.57,4.09,2.58,6.93l76.25,10.71-.05.74q-12,0-24.06,0c-31.82.05-63.64.25-95.46,0-3.3,0-7.16-2.12-9.77-4.39-29.56-25.74-66.8-30.51-101-12.65-31.87,16.64-50.44,53.53-45.07,89.56,5.35,35.87,33.27,65.87,68.26,72.78,30.7,6.07,57.39-2.07,80.17-23.5,1.8-1.7,4.64-3.23,7-3.24,39.67-.24,48.76-.23,88.43-.26.73,0-25.33,9-54.3,13.12-.07.86-.3,1.4-.12,1.65,5.75,7.77,6.14,8.14-.69,15.15-8,8.16-16.69,15.59-25.07,23.34-3.65,3.38-6.61,3.26-10-.8S4217.67,4622.44,4214,4619Z" transform="translate(-4018.94 -4382.93)"/><path class="cls-9" d="M4175.48,4597a79.26,79.26,0,0,1-82.5-29.1c-21.13-28-22.25-65.44-3.16-94,18.71-28,54-41.8,85.63-33.3-23.43-2.23-44.17,4.05-61.71,19.74s-26.26,35.66-26.27,59.12C4087.43,4561.71,4124.79,4602.55,4175.48,4597Z" transform="translate(-4018.94 -4382.93)"/><path class="cls-10" d="M4388.18,4605.53q0,1.49,0,2.25a20.06,20.06,0,0,1-.22,2.28,8.61,8.61,0,0,1-1.65,4.12,10.46,10.46,0,0,1-8.6,4,11.43,11.43,0,0,1-4.13-.74,8.67,8.67,0,0,1-4.68-3.74,11.23,11.23,0,0,1-1.45-5.89h8.28a6.46,6.46,0,0,0,.47,2.33,1.93,1.93,0,0,0,1.87,1.21,2,2,0,0,0,2-1.31,7.16,7.16,0,0,0,.34-2.58v-20.35h7.79Z" transform="translate(-4018.94 -4382.93)"/><path class="cls-10" d="M4417.58,4614.84a12.87,12.87,0,0,1-17.56,0,12.46,12.46,0,0,1,0-17.4,12.87,12.87,0,0,1,17.56,0,12.46,12.46,0,0,1,0,17.4Zm-4.85-12.73a5.33,5.33,0,0,0-7.86,0,5.7,5.7,0,0,0-1.55,4.05,5.76,5.76,0,0,0,1.55,4,5.37,5.37,0,0,0,7.86,0,5.8,5.8,0,0,0,1.55-4A5.74,5.74,0,0,0,4412.73,4602.11Z" transform="translate(-4018.94 -4382.93)"/><path class="cls-10" d="M4443.42,4617.6v-12.43a6.34,6.34,0,0,0-.72-3.32,3.21,3.21,0,0,0-3-1.47,3.5,3.5,0,0,0-3,1.29,5.53,5.53,0,0,0-.8,3.24v12.69h-6.84v-30.49h6.84v9.73h.08a5.21,5.21,0,0,1,2.53-2.25,8.22,8.22,0,0,1,3.36-.65,7.74,7.74,0,0,1,6.22,2.52,8.22,8.22,0,0,1,1.89,4,13.71,13.71,0,0,1,.22,2.13c0,.32,0,.7,0,1.13v13.92Z" transform="translate(-4018.94 -4382.93)"/><path class="cls-10" d="M4473.57,4617.6v-12.49a6.66,6.66,0,0,0-.65-3.32,3.11,3.11,0,0,0-2.93-1.41,3.54,3.54,0,0,0-3.16,1.37,6.14,6.14,0,0,0-.77,3.42v12.43h-6.83v-22.87h6.37v2.43h.1a6.78,6.78,0,0,1,6.22-3.22,8.78,8.78,0,0,1,5.85,2,6.89,6.89,0,0,1,2.13,3.35,13.72,13.72,0,0,1,.51,4v14.3Z" transform="translate(-4018.94 -4382.93)"/><path class="cls-10" d="M4497.58,4599.92v17.68h-6.84v-17.68h-3.38v-5.19h3.38v-7.62h6.84v7.62h3.3v5.19Z" transform="translate(-4018.94 -4382.93)"/><path class="cls-10" d="M4522.27,4617.6v-12.43a6.34,6.34,0,0,0-.72-3.32,3.2,3.2,0,0,0-3-1.47,3.48,3.48,0,0,0-3,1.29,5.45,5.45,0,0,0-.81,3.24v12.69h-6.84v-30.49h6.84v9.73h.08a5.24,5.24,0,0,1,2.54-2.25,8.15,8.15,0,0,1,3.36-.65,7.72,7.72,0,0,1,6.21,2.52,8.22,8.22,0,0,1,1.89,4,12.59,12.59,0,0,1,.22,2.13c0,.32,0,.7,0,1.13v13.92Z" transform="translate(-4018.94 -4382.93)"/><path class="cls-10" d="M4555.26,4617.6v-2.47h-.08a5.61,5.61,0,0,1-2.88,2.51,9.61,9.61,0,0,1-3.8.74,10.76,10.76,0,0,1-8.39-3.56,12.51,12.51,0,0,1-3.1-8.66,12.36,12.36,0,0,1,3.16-8.61,10.78,10.78,0,0,1,8.33-3.61,9.22,9.22,0,0,1,3.78.77,6.13,6.13,0,0,1,2.9,2.45h.08v-2.43h6.83v22.87Zm-1.63-15.61a5.56,5.56,0,0,0-4.13-1.65,5.33,5.33,0,0,0-4.08,1.73,5.83,5.83,0,0,0-1.57,4.17,5.58,5.58,0,0,0,1.63,4.06,5.81,5.81,0,0,0,8.17,0,5.78,5.78,0,0,0,1.61-4.16A5.72,5.72,0,0,0,4553.63,4602Z" transform="translate(-4018.94 -4382.93)"/><path class="cls-10" d="M4585.53,4617.6v-12.49a6.66,6.66,0,0,0-.65-3.32,3.12,3.12,0,0,0-2.94-1.41,3.52,3.52,0,0,0-3.15,1.37,6.14,6.14,0,0,0-.77,3.42v12.43h-6.84v-22.87h6.38v2.43h.1a6.77,6.77,0,0,1,6.22-3.22,8.78,8.78,0,0,1,5.85,2,6.89,6.89,0,0,1,2.13,3.35,13.75,13.75,0,0,1,.5,4v14.3Z" transform="translate(-4018.94 -4382.93)"/><path class="cls-10" d="M4618.66,4617.6v-30.49h7.79v23.65h9v6.84Z" transform="translate(-4018.94 -4382.93)"/><path class="cls-10" d="M4665,4608.25h-17.13q.65,4.32,5.35,4.32a5.17,5.17,0,0,0,4.16-2.13h7a13.57,13.57,0,0,1-4.38,5.67,11.18,11.18,0,0,1-6.78,2.23,12.15,12.15,0,0,1-12.11-12.1,12,12,0,0,1,3.48-8.63,11.33,11.33,0,0,1,8.51-3.67,11.45,11.45,0,0,1,8.67,3.67,12.39,12.39,0,0,1,3.39,8.83A9.31,9.31,0,0,1,4665,4608.25Zm-6.67-4.61c-.57-2.62-2.3-3.92-5.19-3.92s-4.63,1.3-5.19,3.92Z" transform="translate(-4018.94 -4382.93)"/><path class="cls-10" d="M4695.73,4608.25H4678.6q.64,4.32,5.35,4.32a5.17,5.17,0,0,0,4.16-2.13h7a13.51,13.51,0,0,1-4.39,5.67,11.13,11.13,0,0,1-6.77,2.23,12.15,12.15,0,0,1-12.11-12.1,12,12,0,0,1,3.48-8.63,11.88,11.88,0,0,1,17.17,0,12.36,12.36,0,0,1,3.4,8.83A9.31,9.31,0,0,1,4695.73,4608.25Zm-6.67-4.61c-.57-2.62-2.3-3.92-5.19-3.92s-4.63,1.3-5.19,3.92Z" transform="translate(-4018.94 -4382.93)"/><path class="cls-10" d="M4752.06,4601.87a15.94,15.94,0,0,1-4.62,11.69,16.73,16.73,0,0,1-23.11.06,15.37,15.37,0,0,1-4.73-11.39,14.85,14.85,0,0,1,4.81-11.28,16.83,16.83,0,0,1,20.89-1.45,14,14,0,0,1,5.86,7.82h-8.73a7.25,7.25,0,0,0-6.72-3.94,7.76,7.76,0,0,0-6,2.62,8.94,8.94,0,0,0-2.3,6.23,9.48,9.48,0,0,0,2.24,6.44,7.73,7.73,0,0,0,6.13,2.72,8.48,8.48,0,0,0,4.55-1.19,6.22,6.22,0,0,0,2.73-3.72h-9.09v-6.22H4752c0,.24,0,.51,0,.8Z" transform="translate(-4018.94 -4382.93)"/><path class="cls-10" d="M4782.57,4608.25h-17.14c.43,2.88,2.22,4.32,5.35,4.32a5.17,5.17,0,0,0,4.17-2.13h7a13.51,13.51,0,0,1-4.39,5.67,11.14,11.14,0,0,1-6.78,2.23,12.16,12.16,0,0,1-12.1-12.1,12,12,0,0,1,3.48-8.63,11.33,11.33,0,0,1,8.5-3.67,11.45,11.45,0,0,1,8.67,3.67,12.36,12.36,0,0,1,3.4,8.83A9.31,9.31,0,0,1,4782.57,4608.25Zm-6.68-4.61c-.56-2.62-2.29-3.92-5.19-3.92s-4.62,1.3-5.19,3.92Z" transform="translate(-4018.94 -4382.93)"/><path class="cls-10" d="M4807.81,4617.6v-2.47h-.08a5.61,5.61,0,0,1-2.88,2.51,9.61,9.61,0,0,1-3.8.74,10.78,10.78,0,0,1-8.39-3.56,12.5,12.5,0,0,1-3.09-8.66,12.36,12.36,0,0,1,3.15-8.61,10.8,10.8,0,0,1,8.33-3.61,9.22,9.22,0,0,1,3.78.77,6.08,6.08,0,0,1,2.9,2.45h.08v-2.43h6.84v22.87Zm-1.63-15.61a5.55,5.55,0,0,0-4.12-1.65,5.37,5.37,0,0,0-4.09,1.73,5.86,5.86,0,0,0-1.56,4.17,5.61,5.61,0,0,0,1.62,4.06,5.81,5.81,0,0,0,8.17,0,5.78,5.78,0,0,0,1.61-4.16A5.68,5.68,0,0,0,4806.18,4602Z" transform="translate(-4018.94 -4382.93)"/><path class="cls-10" d="M4835.93,4600.82a8.2,8.2,0,0,0-3.82.81,3.66,3.66,0,0,0-1.57,3.4v12.57h-6.84v-22.87h6.41v2.43h.1a5.87,5.87,0,0,1,5.72-3.22Z" transform="translate(-4018.94 -4382.93)"/><path class="cls-10" d="M4891.07,4601.87a15.91,15.91,0,0,1-4.63,11.69,16.73,16.73,0,0,1-23.11.06,15.37,15.37,0,0,1-4.72-11.39,14.87,14.87,0,0,1,4.8-11.28,16.84,16.84,0,0,1,20.9-1.45,14,14,0,0,1,5.85,7.82h-8.72a7.25,7.25,0,0,0-6.72-3.94,7.8,7.8,0,0,0-6,2.62,8.93,8.93,0,0,0-2.29,6.23,9.47,9.47,0,0,0,2.23,6.44,7.75,7.75,0,0,0,6.14,2.72,8.44,8.44,0,0,0,4.54-1.19,6.23,6.23,0,0,0,2.74-3.72H4873v-6.22H4891c0,.24,0,.51,0,.8Z" transform="translate(-4018.94 -4382.93)"/><path class="cls-10" d="M4911.1,4600.82a8.2,8.2,0,0,0-3.82.81,3.66,3.66,0,0,0-1.57,3.4v12.57h-6.84v-22.87h6.42v2.43h.1a5.86,5.86,0,0,1,5.71-3.22Z" transform="translate(-4018.94 -4382.93)"/><path class="cls-10" d="M4938,4614.84a12.87,12.87,0,0,1-17.56,0,12.46,12.46,0,0,1,0-17.4,12.87,12.87,0,0,1,17.56,0,12.46,12.46,0,0,1,0,17.4Zm-4.85-12.73a5.33,5.33,0,0,0-7.86,0,5.7,5.7,0,0,0-1.55,4.05,5.76,5.76,0,0,0,1.55,4,5.37,5.37,0,0,0,7.86,0,5.8,5.8,0,0,0,1.55-4A5.74,5.74,0,0,0,4933.16,4602.11Z" transform="translate(-4018.94 -4382.93)"/><path class="cls-10" d="M4964.21,4617.6v-2.43h-.08a5.16,5.16,0,0,1-2.45,2.51,8.12,8.12,0,0,1-3.48.66,8.21,8.21,0,0,1-6.72-2.87,8.65,8.65,0,0,1-1.71-3.34,15.43,15.43,0,0,1-.34-3.72v-13.68h6.84v12.65a6.14,6.14,0,0,0,.68,3.26,3.28,3.28,0,0,0,3,1.31q3.91,0,3.92-4.65v-12.57h6.84v22.87Z" transform="translate(-4018.94 -4382.93)"/><path class="cls-10" d="M5001.52,4614.78a10.33,10.33,0,0,1-8.07,3.6,8.93,8.93,0,0,1-6.88-2.83v9.67h-6.83v-30.49h6.41v2.51h.14a8.61,8.61,0,0,1,7.12-3.3,10.2,10.2,0,0,1,8.25,3.75,13.15,13.15,0,0,1,2.92,8.71A12.2,12.2,0,0,1,5001.52,4614.78Zm-5.41-12.73a5.76,5.76,0,0,0-8.19,0,6,6,0,0,0,0,8.25A5.53,5.53,0,0,0,4992,4612a5.46,5.46,0,0,0,4.08-1.69,5.65,5.65,0,0,0,1.65-4.1A5.75,5.75,0,0,0,4996.11,4602.05Z" transform="translate(-4018.94 -4382.93)"/><path class="cls-11" d="M4161.79,4498.23a8.85,8.85,0,0,1-2.64,5,142.43,142.43,0,0,1-16.29,13.39c-3.88,2.72-6.08,2.09-9.17-1.51a24.66,24.66,0,0,1-4.18-5.87c-1.75-3.95-1-6.9,2.33-9.7q6.34-5.3,12.78-10.46c3.53-2.84,7.12-2.82,10.64.09,1.57,1.3,3.09,2.67,4.53,4.11A6.72,6.72,0,0,1,4161.79,4498.23Z" transform="translate(-4018.94 -4382.93)"/><path class="cls-11" d="M4123.87,4558.44a7.66,7.66,0,0,1-5.43-1.75,22.06,22.06,0,0,1-7-11.47c-.71-2.76.73-4.72,3.28-5.78a145.11,145.11,0,0,0,14-7c4.5-2.46,7.92-1.82,11.19,2.11a50.44,50.44,0,0,1,4.44,6.17c1.92,3.19,1.49,6.51-1.52,8.63a79.6,79.6,0,0,1-17.36,9A3.39,3.39,0,0,1,4123.87,4558.44Z" transform="translate(-4018.94 -4382.93)"/><path class="cls-11" d="M4130.23,4521.19c-.27,3.07-1.29,5.07-3.22,6.09-4.62,2.44-8.93,5.43-13.86,7.29-3.3,1.25-5.54.52-7.22-2.56a24.26,24.26,0,0,1-2.65-10.15c-.3-4.53,1-6.2,5.2-8.16,3.15-1.46,6.2-3.12,9.27-4.74,2-1.07,4.12-1.7,6,.06A23.64,23.64,0,0,1,4130.23,4521.19Z" transform="translate(-4018.94 -4382.93)"/><path class="cls-11" d="M4119.61,4486c.23-4.38,9.69-12.93,13.32-12.87,3.23.05,9.28,4.45,10.28,7.43a4.33,4.33,0,0,1-1.31,4.69,98.07,98.07,0,0,1-12.93,10.68c-2.1,1.42-4.47,1.33-6-.93C4121,4492,4119.67,4488.72,4119.61,4486Z" transform="translate(-4018.94 -4382.93)"/><path class="cls-11" d="M4147.74,4476.65c-4.16-1.28-8-3.18-10.79-6.56-1-1.18-.61-2.49.34-3.6,1.12-1.31,2.32-2.56,3.38-3.92,1.81-2.31,3.36-5,6.78-5.19,4.53-.21,9.09-.29,13.34,1.69,1.77.82,2.56,2.24,1.45,4a60.86,60.86,0,0,1-9.91,11.88A6.54,6.54,0,0,1,4147.74,4476.65Z" transform="translate(-4018.94 -4382.93)"/><path class="cls-11" d="M4217.65,4469.3a21.31,21.31,0,0,1-1.94,7.56c-.91,2.32-3,3.25-5,2.1-4.57-2.71-9.34-5.34-12.36-9.91a4.72,4.72,0,0,1-.69-4.05c1-3.06,2.18-6,2.33-9.32.07-1.58,1.4-1.66,2.52-1.16a35.55,35.55,0,0,1,14.4,11A4.69,4.69,0,0,1,4217.65,4469.3Z" transform="translate(-4018.94 -4382.93)"/><path class="cls-11" d="M4102,4501.23c.16-1.4.23-2.82.51-4.19a14.3,14.3,0,0,1,11.24-11,2.54,2.54,0,0,1,2.95,1.63,29.58,29.58,0,0,1,2.92,9.47c.45,3.39-1,6-4.17,7.7a90.89,90.89,0,0,1-8.76,4.42c-2.5,1-3.86.17-4.45-2.37A22.27,22.27,0,0,1,4102,4501.23Z" transform="translate(-4018.94 -4382.93)"/><path class="cls-11" d="M4179.34,4446.38c4.78.78,9.62,1.5,13.83,4.36,1.78,1.2,2.49,2.59,2.07,4.57a35.69,35.69,0,0,1-1,3.79c-1.47,4.62-3.54,5.88-8.26,4.46a56.65,56.65,0,0,1-10.52-4.25c-2.31-1.24-3.14-3.05-2.24-5.55a12.74,12.74,0,0,0,1.09-3.74C4174.4,4446.61,4176.08,4445.58,4179.34,4446.38Z" transform="translate(-4018.94 -4382.93)"/><path class="cls-11" d="M4102.74,4533.72c-.21,2.14-.51,3.82-2.67,4.29-2.75.6-6.29-.69-7.22-2.9-2.33-5.59-2.77-11.5-2.76-17.45,0-1.17.48-2.26,2.12-1.25a3.11,3.11,0,0,0,1.73.55c4.87-.43,6.17,2.77,6.87,6.46S4102.65,4530.44,4102.74,4533.72Z" transform="translate(-4018.94 -4382.93)"/><path class="cls-11" d="M4156.23,4455.9c-1.77-.23-3.92-.42-6-.79-1.22-.21-3.18,0-3.07-1.75.12-2-.2-4.65,2.06-5.62a33.65,33.65,0,0,1,18.13-2c1.37.2,2,1.1,1.92,2.61-.16,5.29-2.93,8-8.31,7.79C4159.48,4456.12,4158.05,4456,4156.23,4455.9Z" transform="translate(-4018.94 -4382.93)"/><path class="cls-11" d="M4099.74,4542.72c4.57-.24,7.36,2.12,9.39,5.69,1.74,3.05,3.72,6,5,9.27,1,2.56.15,4-2.59,4s-5.22-.53-6.92-2.72c-4-5.17-7.52-10.6-9.56-16.82C4095.24,4542,4098.37,4542.79,4099.74,4542.72Z" transform="translate(-4018.94 -4382.93)"/><path class="cls-11" d="M4100.32,4499.46c-.3,3.48-.15,7-1.58,10.34-.93,2.16-2.37,2.41-4.43,2.05s-3.36-1.33-3.27-3.59a43,43,0,0,1,4.19-16.2c1-2.26,2.44-.86,3.8-.78,1.55.08,1.83.84,1.68,2.18C4100.49,4495.45,4100.44,4497.46,4100.32,4499.46Z" transform="translate(-4018.94 -4382.93)"/><path class="cls-11" d="M4113.89,4565.42c5.29-.3,9.28,2.2,13,5.42,1.74,1.49,7.51,6.09,6.85,7a4.09,4.09,0,0,1-3.4,1.21c-2.81-.17-4.89-1.94-7-3.27a57.18,57.18,0,0,1-12.79-10.12C4110.36,4565.49,4112.71,4565.49,4113.89,4565.42Z" transform="translate(-4018.94 -4382.93)"/><path class="cls-12" d="M4096.05,4542.15" transform="translate(-4018.94 -4382.93)"/></svg>