<?xml version="1.0" encoding="utf-8"?>
<!-- Generator: Adobe Illustrator 24.1.2, SVG Export Plug-In . SVG Version: 6.00 Build 0)  -->
<svg version="1.1" id="Layer_1" xmlns="http://www.w3.org/2000/svg" xmlns:xlink="http://www.w3.org/1999/xlink" x="0px" y="0px"
	 viewBox="0 0 997.46 271.57" style="enable-background:new 0 0 997.46 271.57;" xml:space="preserve">
<style type="text/css">
	.st0{fill:#231F20;}
</style>
<path class="st0" d="M639.79,181.97c-12,0-21.18-3.91-27.42-11.8c-5.69-8.37-6.25-18.75-1.69-31.28l1.73-4.77
	c4.74-13,13.95-23.88,27.63-32.74c11-6.29,21.84-9.47,32.53-9.47h34.16c11.55,0,20.43,3.58,26.64,10.75
	c6.36,8.55,7.05,19.65,2.06,33.3l-1.33,3.66c-4.07,11.18-11.42,20.85-22.06,29c-6.6,4.7-12.17,7.76-16.8,9.22
	c-6.8,2.6-14.01,3.99-21.29,4.1L639.79,181.97z M636.89,138.89c-3.11,8.56-1.52,14.61,4.77,18.15c2.33,0.92,4.81,1.39,7.31,1.4
	h32.63c8.68,0,16.15-3.91,22.44-11.79c1.82-2.67,3.33-5.54,4.52-8.55c4.11-11.31,2.46-18.52-5-21.75c-2.05-0.62-4.19-0.92-6.33-0.92
	H664.6c-7.39,0-14,3.05-20,9.22c-3,3.36-5.3,7.29-6.77,11.55L636.89,138.89z"/>
<path class="st0" d="M124.14,180.75l1.32-3.61c1.28-3.54,4-7.33,8.23-11.36c8.1-6.66,13.68-8.56,22.54-8.56h21.76
	c11.24,0,21.94-7.58,26.46-20l16.07-44.18h26.22L230.2,138.5c-4.76,13.08-13.97,24-27.63,32.75c-10.91,6.3-21.78,9.48-32.47,9.48
	L124.14,180.75z"/>
<path class="st0" d="M233.16,180.75l28.35-77.91c1.45-4,4.67-7,9.73-9.1c1.13-0.4,2.32-0.6,3.52-0.61h16.62l-23.32,64.09h64.34
	l-0.46,1.28c-2.16,5.93-6.98,11.55-14.45,16.87c-6.14,3.6-11.43,5.38-15.89,5.38L233.16,180.75z"/>
<path class="st0" d="M381.64,180.75c-12,0-21.06-3.92-27.23-11.68c-5.64-8.49-6.26-18.75-1.86-30.79l0.84-2.32
	c4.83-13.26,14-24.3,27.52-33.12c10.97-6.47,21.84-9.7,32.62-9.71h67.28l-1.31,3.6c-1.29,3.55-4,7.33-8.23,11.37
	c-8.05,6.66-13.69,8.55-22.73,8.55H405.7c-12.83,0-22.21,8.31-26.72,20.71c-4.12,11.31-0.08,19.86,11.83,19.86h41.56l3-8.19H393.2
	c-0.18,0-0.28-0.06-0.21-0.24l1.22-3.36c1.93-5.32,6.28-10.39,13.11-15.22c5.48-3.11,10.21-4.7,14.24-4.7h48.46l-20.1,55.24
	L381.64,180.75z"/>
<path class="st0" d="M554.69,180.75l-11.79-19.31h-41.44l-7,19.24h-26.21l12.16-33.42c1.44-4,4.53-8.25,9.21-12.71
	c7.12-6.29,14.87-9.47,23.18-9.47h1.9l-4.67,12.83h49.74c4.68,0.15,9.13-2.02,11.89-5.8c0.91-1.23,1.65-2.58,2.2-4l0.62-1.71
	c1.74-4.77,0.67-7.89-3.25-9.35c-0.78-0.29-1.61-0.42-2.44-0.37h-51c-7,0-11.7-1.28-14.06-3.85c-4.88-3.72-6.71-11.12-3.6-19.67
	h77.55c20,0,30.48,13.13,22.7,34.52c-4.45,12.22-12.96,21.65-25.52,28.29h-0.12v0.12l14.71,24.56l-0.05,0.13L554.69,180.75z"/>
<path class="st0" d="M788.79,180.75c-14.36,0-25.79-4-34.43-12c-7.34-8.37-9-18.15-4.86-29.45l12.85-35.32
	c1.72-4.7,5.59-8.12,11.61-10.39c1.03-0.28,2.09-0.42,3.15-0.42h14.72l-15.87,43.62c-2.47,6.78-1.54,12.1,2.91,15.83
	c4.3,3.48,10.21,5.19,17.73,5.19c9.07-0.06,17.96-2.53,25.76-7.15c6-3.91,9.85-8.25,11.6-13.07l11-30.25c1.82-5,4.2-8.49,7.14-10.38
	c2.71-2.12,6.04-3.31,9.48-3.37h14.48l-16.59,45.59c-4.74,13.01-14.7,23.7-29.89,32.07c-12.88,6.36-25.4,9.54-37.69,9.54
	L788.79,180.75z"/>
<path class="st0" d="M862.66,180.75l12.19-33.49c1.44-4,4.53-8.25,9.21-12.71c7.12-6.29,14.87-9.47,23.18-9.47h1.9l-4.67,12.83
	h49.92c4.52,0.12,8.83-1.93,11.6-5.5c1.15-1.62,2.08-3.39,2.77-5.25c1.75-4.83,1.09-8.07-2-9.72c-0.19-0.3-1.14-0.54-2.76-0.79
	c-33.31,0-18.74-0.06-52.7-0.12c-7.76,0-12.87-2.08-15.45-6.23c-3.63-5.32-3.62-10.88-1.33-17.17h77.79
	c11.43,0,19.31,4.21,23.51,12.64c2.31,6.24,2.15,13.08-0.54,20.47l-0.94,2.57c-3.6,9.9-10.67,18.25-21.22,25.05
	c-7.96,4.9-17.11,7.53-26.46,7.58h-50.79l-7,19.31L862.66,180.75z"/>
<path class="st0" d="M195.06,236.07c-10.42,3.78-21,7.45-31.37,11.53c-1.98,0.94-3.45,2.71-4,4.84c-0.71,4.8-0.22,9.77-0.88,14.58
	c-0.24,1.71-2.41,4.52-3.7,4.52c-14.34,0-28.68-0.48-43-0.79c-3.69-0.08-5-2.19-4.24-5.41c3.23-13.93-2.33-21.52-16.24-24.12
	c-4.17-0.91-8.06-2.8-11.35-5.53c-5.67-4.6-9.26-2.53-13.68,1.9c-10.44,10.46-10.91,10.58-21.46,0.3
	c-7.4-7.21-13.9-15.36-20.79-23.12c-2.79-3.14-2.47-5.72,0.85-8.57c4.31-3.71,8.14-8,11.42-11.22c-4.06-11.4-7.75-22.15-11.83-32.75
	c-0.96-1.83-2.67-3.16-4.69-3.63c-3.35-0.59-6.77-0.66-10.14-0.23c-6.63,0.8-10.13-1.59-9.88-8.51c0.47-12.67,0.97-25.33,1.48-38
	c0.15-3.91,2-5.47,6.09-5.21c5.68,0.37,12.63,2,16.76-0.51c3.69-2.29,4.08-9.66,6.32-14.6c2.44-5.39,5.6-10.47,7.89-15.92
	c0.68-2.1,0.41-4.4-0.73-6.29c-2.3-3.32-5.06-6.29-8.2-8.82c-4.57-3.64-3.95-7.05-0.3-10.52c9.34-8.88,18.83-17.62,28.22-26.46
	c3.12-2.94,5.56-2.62,8.54,0.55c3.89,4.15,8.36,7.77,12.2,11.27c10.61-3.72,21.77-7.51,32.79-11.67c1.38-0.53,2.72-3,2.87-4.64
	c0.44-4.84-0.05-9.78,0.51-14.6c0.19-1.67,2.38-4.46,3.66-4.46c14.13,0,28.27,0.4,42.41,0.67c4.64,0.08,5.44,2.78,5.25,6.77
	c-0.25,5.46-1.95,12.12,0.5,16.06c2.22,3.56,9.3,3.92,14.05,6.1c6.7,3.06,13.23,6.5,20.22,10c4.12-3.91,8.49-7.89,12.65-12.09
	c2.29-2.31,4.39-3.31,7-0.62c9.78,10.23,19.63,20.39,29.24,30.78c1.38,1.49,1.57,4.09,2.58,6.93l76.25,10.71l-0.05,0.74
	c-8,0-16.02,0-24.06,0c-31.82,0.05-63.64,0.25-95.46,0c-3.3,0-7.16-2.12-9.77-4.39c-29.56-25.74-66.8-30.51-101-12.65
	c-31.87,16.64-50.44,53.53-45.07,89.56c5.35,35.87,33.27,65.87,68.26,72.78c30.7,6.07,57.39-2.07,80.17-23.5
	c1.8-1.7,4.64-3.23,7-3.24c39.67-0.24,48.76-0.23,88.43-0.26c0.73,0-25.33,9-54.3,13.12c-0.07,0.86-0.3,1.4-0.12,1.65
	c5.75,7.77,6.14,8.14-0.69,15.15c-8,8.16-16.69,15.59-25.07,23.34c-3.65,3.38-6.61,3.26-10-0.8S198.73,239.51,195.06,236.07z"/>
<path class="st0" d="M156.54,214.07c-30.85,7.73-63.33-3.73-82.5-29.1c-21.13-28-22.25-65.44-3.16-94c18.71-28,54-41.8,85.63-33.3
	c-23.43-2.23-44.17,4.05-61.71,19.74s-26.26,35.66-26.27,59.12C68.49,178.78,105.85,219.62,156.54,214.07z"/>
<path class="st0" d="M369.24,222.6c0,0.99,0,1.74,0,2.25c-0.03,0.76-0.1,1.52-0.22,2.28c-0.18,1.49-0.75,2.91-1.65,4.12
	c-2.06,2.63-5.26,4.12-8.6,4c-1.41,0.01-2.81-0.24-4.13-0.74c-1.96-0.65-3.61-1.98-4.68-3.74c-1.01-1.79-1.52-3.83-1.45-5.89h8.28
	c0.01,0.8,0.17,1.59,0.47,2.33c0.3,0.76,1.05,1.24,1.87,1.21c0.88,0.05,1.7-0.48,2-1.31c0.27-0.83,0.39-1.71,0.34-2.58v-20.35h7.79
	L369.24,222.6z"/>
<path class="st0" d="M398.64,231.91c-4.94,4.61-12.62,4.61-17.56,0c-4.72-4.84-4.72-12.56,0-17.4c4.94-4.61,12.62-4.61,17.56,0
	C403.36,219.35,403.36,227.07,398.64,231.91z M393.79,219.18c-1.99-2.17-5.36-2.32-7.53-0.33c-0.11,0.1-0.22,0.21-0.33,0.33
	c-1.03,1.09-1.59,2.55-1.55,4.05c-0.02,1.48,0.54,2.92,1.55,4c2.02,2.17,5.42,2.29,7.59,0.27c0.09-0.09,0.18-0.18,0.27-0.27
	c1.01-1.09,1.56-2.52,1.55-4C395.37,221.73,394.82,220.27,393.79,219.18z"/>
<path class="st0" d="M424.48,234.67v-12.43c0.07-1.15-0.18-2.3-0.72-3.32c-0.65-1.01-1.8-1.58-3-1.47c-1.15-0.09-2.27,0.39-3,1.29
	c-0.59,0.97-0.87,2.1-0.8,3.24v12.69h-6.84v-30.49h6.84v9.73h0.08c0.57-1.01,1.46-1.8,2.53-2.25c1.06-0.45,2.21-0.67,3.36-0.65
	c2.35-0.15,4.64,0.78,6.22,2.52c0.98,1.14,1.64,2.52,1.89,4c0.13,0.7,0.2,1.42,0.22,2.13c0,0.32,0,0.7,0,1.13v13.92L424.48,234.67z"
	/>
<path class="st0" d="M454.63,234.67v-12.49c0.07-1.14-0.15-2.29-0.65-3.32c-0.63-0.98-1.77-1.53-2.93-1.41
	c-1.22-0.12-2.42,0.4-3.16,1.37c-0.58,1.04-0.85,2.23-0.77,3.42v12.43h-6.83V211.8h6.37v2.43h0.1c1.32-2.14,3.71-3.38,6.22-3.22
	c2.13-0.06,4.21,0.65,5.85,2c1.02,0.88,1.76,2.05,2.13,3.35c0.37,1.3,0.54,2.65,0.51,4v14.3L454.63,234.67z"/>
<path class="st0" d="M478.64,216.99v17.68h-6.84v-17.68h-3.38v-5.19h3.38v-7.62h6.84v7.62h3.3v5.19H478.64z"/>
<path class="st0" d="M503.33,234.67v-12.43c0.07-1.15-0.18-2.3-0.72-3.32c-0.64-1.01-1.8-1.58-3-1.47c-1.15-0.1-2.28,0.39-3,1.29
	c-0.6,0.97-0.89,2.1-0.81,3.24v12.69h-6.84v-30.49h6.84v9.73h0.08c0.57-1.01,1.47-1.8,2.54-2.25c1.06-0.45,2.21-0.67,3.36-0.65
	c2.35-0.15,4.63,0.78,6.21,2.52c0.98,1.14,1.64,2.52,1.89,4c0.13,0.7,0.21,1.42,0.22,2.13c0,0.32,0,0.7,0,1.13v13.92L503.33,234.67z
	"/>
<path class="st0" d="M536.32,234.67v-2.47h-0.08c-0.64,1.15-1.66,2.04-2.88,2.51c-1.2,0.5-2.5,0.75-3.8,0.74
	c-3.19,0.11-6.26-1.19-8.39-3.56c-2.1-2.39-3.2-5.48-3.1-8.66c-0.09-3.17,1.04-6.25,3.16-8.61c2.11-2.37,5.16-3.69,8.33-3.61
	c1.3-0.01,2.59,0.25,3.78,0.77c1.2,0.49,2.22,1.35,2.9,2.45h0.08v-2.43h6.83v22.87H536.32z M534.69,219.06
	c-1.09-1.1-2.58-1.7-4.13-1.65c-1.55-0.04-3.04,0.59-4.08,1.73c-1.05,1.13-1.62,2.63-1.57,4.17c-0.03,1.52,0.56,2.98,1.63,4.06
	c2.26,2.24,5.91,2.24,8.17,0c1.07-1.12,1.65-2.61,1.61-4.16C536.36,221.67,535.77,220.17,534.69,219.06L534.69,219.06z"/>
<path class="st0" d="M566.59,234.67v-12.49c0.07-1.14-0.15-2.29-0.65-3.32c-0.64-0.99-1.77-1.53-2.94-1.41
	c-1.22-0.12-2.41,0.4-3.15,1.37c-0.58,1.04-0.85,2.23-0.77,3.42v12.43h-6.84V211.8h6.38v2.43h0.1c1.31-2.15,3.71-3.39,6.22-3.22
	c2.13-0.06,4.21,0.65,5.85,2c1.02,0.88,1.76,2.05,2.13,3.35c0.36,1.3,0.53,2.65,0.5,4v14.3L566.59,234.67z"/>
<path class="st0" d="M599.72,234.67v-30.49h7.79v23.65h9v6.84L599.72,234.67z"/>
<path class="st0" d="M646.06,225.32h-17.13c0.43,2.88,2.22,4.32,5.35,4.32c1.65-0.01,3.19-0.8,4.16-2.13h7
	c-0.93,2.25-2.44,4.21-4.38,5.67c-1.96,1.46-4.34,2.25-6.78,2.23c-6.68-0.02-12.08-5.42-12.11-12.1c-0.05-3.23,1.21-6.34,3.48-8.63
	c2.18-2.38,5.28-3.72,8.51-3.67c3.28-0.08,6.44,1.26,8.67,3.67c2.25,2.38,3.47,5.55,3.39,8.83
	C646.23,224.12,646.17,224.72,646.06,225.32z M639.39,220.71c-0.57-2.62-2.3-3.92-5.19-3.92s-4.63,1.3-5.19,3.92H639.39z"/>
<path class="st0" d="M676.79,225.32h-17.13c0.43,2.88,2.21,4.32,5.35,4.32c1.65-0.01,3.19-0.8,4.16-2.13h7
	c-0.93,2.25-2.44,4.21-4.39,5.67c-1.95,1.47-4.33,2.25-6.77,2.23c-6.68-0.02-12.08-5.42-12.11-12.1c-0.05-3.23,1.21-6.34,3.48-8.63
	c4.54-4.74,12.06-4.91,16.8-0.37c0.13,0.12,0.25,0.25,0.37,0.37c2.26,2.38,3.48,5.55,3.4,8.83
	C676.96,224.12,676.9,224.72,676.79,225.32z M670.12,220.71c-0.57-2.62-2.3-3.92-5.19-3.92s-4.63,1.3-5.19,3.92H670.12z"/>
<path class="st0" d="M733.12,218.94c0.13,4.37-1.54,8.59-4.62,11.69c-6.45,6.19-16.63,6.22-23.11,0.06
	c-3.1-2.97-4.81-7.1-4.73-11.39c-0.1-4.28,1.66-8.39,4.81-11.28c5.78-5.28,14.44-5.89,20.89-1.45c2.83,1.82,4.91,4.59,5.86,7.82
	h-8.73c-1.28-2.51-3.9-4.04-6.72-3.94c-2.29-0.05-4.48,0.9-6,2.62c-1.54,1.7-2.36,3.94-2.3,6.23c-0.08,2.35,0.72,4.65,2.24,6.44
	c1.52,1.79,3.78,2.79,6.13,2.72c1.6,0.04,3.18-0.37,4.55-1.19c1.35-0.84,2.33-2.18,2.73-3.72h-9.09v-6.22h18.03c0,0.24,0,0.51,0,0.8
	L733.12,218.94z"/>
<path class="st0" d="M763.63,225.32h-17.14c0.43,2.88,2.22,4.32,5.35,4.32c1.65,0,3.2-0.79,4.17-2.13h7
	c-0.93,2.25-2.44,4.21-4.39,5.67c-1.95,1.47-4.34,2.25-6.78,2.23c-6.67-0.03-12.07-5.43-12.1-12.1c-0.05-3.23,1.21-6.34,3.48-8.63
	c2.18-2.38,5.27-3.71,8.5-3.67c3.28-0.08,6.44,1.26,8.67,3.67c2.26,2.38,3.48,5.55,3.4,8.83
	C763.8,224.12,763.74,224.72,763.63,225.32z M756.95,220.71c-0.56-2.62-2.29-3.92-5.19-3.92s-4.62,1.3-5.19,3.92H756.95z"/>
<path class="st0" d="M788.87,234.67v-2.47h-0.08c-0.64,1.15-1.66,2.04-2.88,2.51c-1.2,0.5-2.5,0.75-3.8,0.74
	c-3.19,0.11-6.26-1.19-8.39-3.56c-2.09-2.39-3.2-5.49-3.09-8.66c-0.09-3.17,1.04-6.25,3.15-8.61c2.11-2.37,5.16-3.69,8.33-3.61
	c1.3-0.01,2.59,0.25,3.78,0.77c1.2,0.49,2.22,1.34,2.9,2.45h0.08v-2.43h6.84v22.87H788.87z M787.24,219.06
	c-1.08-1.1-2.58-1.7-4.12-1.65c-1.55-0.04-3.04,0.59-4.09,1.73c-1.05,1.13-1.61,2.63-1.56,4.17c-0.03,1.52,0.55,2.98,1.62,4.06
	c2.26,2.24,5.91,2.24,8.17,0c1.07-1.12,1.65-2.61,1.61-4.16C788.91,221.67,788.32,220.17,787.24,219.06L787.24,219.06z"/>
<path class="st0" d="M816.99,217.89c-1.32-0.04-2.63,0.24-3.82,0.81c-1.11,0.76-1.71,2.06-1.57,3.4v12.57h-6.84V211.8h6.41v2.43h0.1
	c1.07-2.14,3.34-3.41,5.72-3.22L816.99,217.89z"/>
<path class="st0" d="M872.13,218.94c0.13,4.37-1.55,8.59-4.63,11.69c-6.45,6.19-16.63,6.22-23.11,0.06
	c-3.09-2.97-4.81-7.1-4.72-11.39c-0.1-4.28,1.65-8.38,4.8-11.28c5.78-5.29,14.44-5.89,20.9-1.45c2.83,1.82,4.9,4.6,5.85,7.82h-8.72
	c-1.28-2.51-3.9-4.04-6.72-3.94c-2.29-0.05-4.48,0.91-6,2.62c-1.54,1.71-2.36,3.94-2.29,6.23c-0.08,2.35,0.71,4.64,2.23,6.44
	c1.53,1.79,3.79,2.79,6.14,2.72c1.6,0.04,3.17-0.37,4.54-1.19c1.36-0.84,2.34-2.17,2.74-3.72h-9.08v-6.22h18c0,0.24,0,0.51,0,0.8
	L872.13,218.94z"/>
<path class="st0" d="M892.16,217.89c-1.32-0.04-2.63,0.24-3.82,0.81c-1.11,0.76-1.71,2.06-1.57,3.4v12.57h-6.84V211.8h6.42v2.43h0.1
	c1.07-2.14,3.33-3.41,5.71-3.22L892.16,217.89z"/>
<path class="st0" d="M919.06,231.91c-4.94,4.61-12.62,4.61-17.56,0c-4.72-4.84-4.72-12.56,0-17.4c4.94-4.61,12.62-4.61,17.56,0
	C923.78,219.35,923.78,227.07,919.06,231.91z M914.21,219.18c-1.99-2.17-5.36-2.32-7.53-0.33c-0.11,0.1-0.22,0.21-0.33,0.33
	c-1.03,1.09-1.59,2.55-1.55,4.05c-0.02,1.48,0.54,2.92,1.55,4c2.02,2.17,5.42,2.29,7.59,0.27c0.09-0.09,0.18-0.18,0.27-0.27
	c1.01-1.09,1.56-2.52,1.55-4c0.04-1.5-0.52-2.95-1.54-4.05H914.21z"/>
<path class="st0" d="M945.27,234.67v-2.43h-0.08c-0.5,1.1-1.37,1.98-2.45,2.51c-1.1,0.47-2.29,0.7-3.48,0.66
	c-2.57,0.15-5.05-0.91-6.72-2.87c-0.81-0.97-1.39-2.11-1.71-3.34c-0.26-1.22-0.38-2.47-0.34-3.72V211.8h6.84v12.65
	c-0.08,1.13,0.16,2.26,0.68,3.26c0.69,0.94,1.84,1.44,3,1.31c2.61,0,3.91-1.55,3.92-4.65V211.8h6.84v22.87L945.27,234.67z"/>
<path class="st0" d="M982.58,231.85c-2.02,2.35-4.98,3.67-8.07,3.6c-2.6,0.1-5.11-0.93-6.88-2.83v9.67h-6.83V211.8h6.41v2.51h0.14
	c1.71-2.18,4.35-3.41,7.12-3.3c3.18-0.11,6.24,1.28,8.25,3.75c1.99,2.46,3.03,5.55,2.92,8.71
	C985.71,226.55,984.62,229.54,982.58,231.85z M977.17,219.12c-2.24-2.26-5.88-2.28-8.15-0.04c-0.02,0.02-0.03,0.03-0.04,0.04
	c-2.19,2.31-2.19,5.94,0,8.25c1.06,1.11,2.54,1.73,4.08,1.7c1.54,0.04,3.02-0.58,4.08-1.69c1.08-1.09,1.68-2.57,1.65-4.1
	C978.83,221.73,978.25,220.23,977.17,219.12z"/>
<path class="st0" d="M142.85,115.3c-0.31,1.91-1.24,3.67-2.64,5c-5.09,4.86-10.54,9.34-16.29,13.39c-3.88,2.72-6.08,2.09-9.17-1.51
	c-1.67-1.74-3.08-3.72-4.18-5.87c-1.75-3.95-1-6.9,2.33-9.7c4.23-3.53,8.49-7.02,12.78-10.46c3.53-2.84,7.12-2.82,10.64,0.09
	c1.57,1.3,3.09,2.67,4.53,4.11C142.17,111.65,142.9,113.44,142.85,115.3z"/>
<path class="st0" d="M104.93,175.51c-1.97,0.14-3.91-0.49-5.43-1.75c-3.47-3-5.92-7.01-7-11.47c-0.71-2.76,0.73-4.72,3.28-5.78
	c4.79-2.08,9.46-4.42,14-7c4.5-2.46,7.92-1.82,11.19,2.11c1.63,1.94,3.12,4,4.44,6.17c1.92,3.19,1.49,6.51-1.52,8.63
	c-5.39,3.7-11.23,6.73-17.36,9C106.01,175.58,105.46,175.61,104.93,175.51z"/>
<path class="st0" d="M111.29,138.26c-0.27,3.07-1.29,5.07-3.22,6.09c-4.62,2.44-8.93,5.43-13.86,7.29c-3.3,1.25-5.54,0.52-7.22-2.56
	c-1.61-3.15-2.52-6.61-2.65-10.15c-0.3-4.53,1-6.2,5.2-8.16c3.15-1.46,6.2-3.12,9.27-4.74c2-1.07,4.12-1.7,6,0.06
	C108.13,129.41,110.39,133.65,111.29,138.26z"/>
<path class="st0" d="M100.67,103.07c0.23-4.38,9.69-12.93,13.32-12.87c3.23,0.05,9.28,4.45,10.28,7.43
	c0.57,1.68,0.05,3.54-1.31,4.69c-4,3.92-8.32,7.5-12.93,10.68c-2.1,1.42-4.47,1.33-6-0.93
	C102.06,109.07,100.73,105.79,100.67,103.07z"/>
<path class="st0" d="M128.8,93.72c-4.16-1.28-8-3.18-10.79-6.56c-1-1.18-0.61-2.49,0.34-3.6c1.12-1.31,2.32-2.56,3.38-3.92
	c1.81-2.31,3.36-5,6.78-5.19c4.53-0.21,9.09-0.29,13.34,1.69c1.77,0.82,2.56,2.24,1.45,4c-2.78,4.37-6.11,8.36-9.91,11.88
	C132.14,93.16,130.49,93.77,128.8,93.72z"/>
<path class="st0" d="M198.71,86.37c-0.18,2.62-0.83,5.18-1.94,7.56c-0.91,2.32-3,3.25-5,2.1c-4.57-2.71-9.34-5.34-12.36-9.91
	c-0.84-1.17-1.09-2.67-0.69-4.05c1-3.06,2.18-6,2.33-9.32c0.07-1.58,1.4-1.66,2.52-1.16c5.67,2.36,10.63,6.15,14.4,11
	C198.75,83.69,199.02,85.06,198.71,86.37z"/>
<path class="st0" d="M83.06,118.3c0.16-1.4,0.23-2.82,0.51-4.19c1.21-5.58,5.63-9.91,11.24-11c1.25-0.28,2.52,0.42,2.95,1.63
	c1.5,2.97,2.49,6.17,2.92,9.47c0.45,3.39-1,6-4.17,7.7c-2.84,1.63-5.76,3.11-8.76,4.42c-2.5,1-3.86,0.17-4.45-2.37
	C82.98,122.09,82.9,120.19,83.06,118.3z"/>
<path class="st0" d="M160.4,63.45c4.78,0.78,9.62,1.5,13.83,4.36c1.78,1.2,2.49,2.59,2.07,4.57c-0.26,1.28-0.6,2.55-1,3.79
	c-1.47,4.62-3.54,5.88-8.26,4.46c-3.64-1.06-7.16-2.48-10.52-4.25c-2.31-1.24-3.14-3.05-2.24-5.55c0.55-1.18,0.92-2.44,1.09-3.74
	C155.46,63.68,157.14,62.65,160.4,63.45z"/>
<path class="st0" d="M83.8,150.79c-0.21,2.14-0.51,3.82-2.67,4.29c-2.75,0.6-6.29-0.69-7.22-2.9c-2.33-5.59-2.77-11.5-2.76-17.45
	c0-1.17,0.48-2.26,2.12-1.25c0.51,0.35,1.11,0.54,1.73,0.55c4.87-0.43,6.17,2.77,6.87,6.46S83.71,147.51,83.8,150.79z"/>
<path class="st0" d="M137.29,72.97c-1.77-0.23-3.92-0.42-6-0.79c-1.22-0.21-3.18,0-3.07-1.75c0.12-2-0.2-4.65,2.06-5.62
	c5.74-2.32,12.02-3.02,18.13-2c1.37,0.2,2,1.1,1.92,2.61c-0.16,5.29-2.93,8-8.31,7.79C140.54,73.19,139.11,73.07,137.29,72.97z"/>
<path class="st0" d="M80.8,159.79c4.57-0.24,7.36,2.12,9.39,5.69c1.74,3.05,3.72,6,5,9.27c1,2.56,0.15,4-2.59,4
	s-5.22-0.53-6.92-2.72c-4-5.17-7.52-10.6-9.56-16.82C76.3,159.07,79.43,159.86,80.8,159.79z"/>
<path class="st0" d="M81.38,116.53c-0.3,3.48-0.15,7-1.58,10.34c-0.93,2.16-2.37,2.41-4.43,2.05s-3.36-1.33-3.27-3.59
	c0.32-5.62,1.75-11.13,4.19-16.2c1-2.26,2.44-0.86,3.8-0.78c1.55,0.08,1.83,0.84,1.68,2.18C81.55,112.52,81.5,114.53,81.38,116.53z"
	/>
<path class="st0" d="M94.95,182.49c5.29-0.3,9.28,2.2,13,5.42c1.74,1.49,7.51,6.09,6.85,7c-0.88,0.91-2.14,1.36-3.4,1.21
	c-2.81-0.17-4.89-1.94-7-3.27c-4.73-2.75-9.03-6.15-12.79-10.12C91.42,182.56,93.77,182.56,94.95,182.49z"/>
<path class="st0" d="M77.11,159.22"/>
</svg>
