<?xml version="1.0" encoding="utf-8"?>
<!-- Generator: Adobe Illustrator 24.1.2, SVG Export Plug-In . SVG Version: 6.00 Build 0)  -->
<svg version="1.1" id="Layer_1" xmlns="http://www.w3.org/2000/svg" xmlns:xlink="http://www.w3.org/1999/xlink" x="0px" y="0px"
	 viewBox="0 0 3000 2444.43" style="enable-background:new 0 0 3000 2444.43;" xml:space="preserve">
<path d="M1121.41,1626.93l11.87-32.46c11.51-31.83,35.97-65.91,74-102.15c72.83-59.89,123.01-76.97,202.68-76.97h195.66
	c101.07,0,197.28-68.16,237.92-179.84l144.5-397.26h235.77l-148.73,408.77c-42.8,117.61-125.62,215.78-248.44,294.48
	c-98.1,56.65-195.84,85.24-291.97,85.24L1121.41,1626.93z"/>
<path d="M2101.69,1626.93l254.92-700.56c13.04-35.97,41.99-62.94,87.49-81.83c10.17-3.58,20.87-5.44,31.65-5.48h149.45
	l-209.69,576.29h578.53l-4.14,11.51c-19.42,53.29-62.74,103.86-129.93,151.69c-55.21,32.37-102.78,48.38-142.88,48.38
	L2101.69,1626.93z"/>
<path d="M1759.11,2124.36c-93.69,33.99-188.83,66.99-282.07,103.67c-17.83,8.48-31,24.41-35.97,43.52
	c-6.38,43.16-1.98,87.85-7.91,131.1c-2.16,15.38-21.67,40.64-33.27,40.64c-128.94,0-257.89-4.32-386.65-7.1
	c-33.18-0.72-44.96-19.69-38.13-48.65c29.04-125.26-20.95-193.5-146.03-216.88c-37.51-8.16-72.51-25.21-102.06-49.72
	c-50.98-41.36-83.26-22.75-123.01,17.08c-93.87,94.05-98.1,95.13-192.96,2.7c-66.54-64.83-124.99-138.11-186.94-207.89
	c-25.09-28.24-22.21-51.44,7.64-77.06c38.76-33.36,73.19-71.93,102.69-100.89c-36.51-102.51-69.69-199.17-106.37-294.48
	c-8.64-16.5-24.04-28.41-42.17-32.64c-30.11-5.28-60.85-5.97-91.18-2.07c-59.61,7.19-91.09-14.3-88.84-76.52
	c4.26-113.9,8.69-227.79,13.31-341.69c1.35-35.16,17.98-49.19,54.76-46.85c51.07,3.33,113.57,17.98,150.7-4.58
	c33.18-20.59,36.69-86.86,56.83-131.28c21.94-48.47,50.36-94.15,70.94-143.15c6.07-18.92,3.68-39.54-6.56-56.56
	c-20.65-29.83-45.49-56.54-73.73-79.31c-41.09-32.73-35.52-63.39-2.7-94.59c83.98-79.85,169.32-158.44,253.75-237.92
	c28.06-26.44,50-23.56,76.79,4.94c34.98,37.32,75.17,69.87,109.7,101.34c95.4-33.45,195.75-67.53,294.84-104.93
	c12.41-4.76,24.46-26.98,25.81-41.72c3.96-43.52-0.45-87.94,4.58-131.28c1.71-15.02,21.4-40.1,32.91-40.1
	c127.05,0,254.2,3.6,381.35,6.02c41.72,0.72,48.92,25,47.21,60.87c-2.25,49.1-17.54,108.98,4.5,144.41
	c19.96,32.01,83.62,35.25,126.33,54.85c60.25,27.52,118.96,58.45,181.82,89.92c37.05-35.16,76.34-70.95,113.75-108.71
	c20.59-20.77,39.48-29.76,62.94-5.58c87.94,91.99,176.51,183.34,262.92,276.77c12.41,13.4,14.12,36.78,23.2,62.32l685.63,96.3
	l-0.45,6.66c-71.93,0-144.05,0-216.34,0c-286.12,0.45-572.24,2.25-858.36,0c-29.67,0-64.38-19.06-87.85-39.48
	c-265.8-231.45-600.65-274.34-908.18-113.75c-286.57,149.63-453.55,481.33-405.26,805.31c48.11,322.54,299.16,592.29,613.78,654.42
	c276.05,54.58,516.04-18.61,720.87-211.31c16.18-15.29,41.72-29.04,62.94-29.14c356.71-2.16,438.44-2.07,795.15-2.34
	c6.56,0-227.76,80.93-488.25,117.97c-0.63,7.73-2.7,12.59-1.08,14.84c51.7,69.87,55.21,73.19-6.2,136.23
	c-71.93,73.37-150.07,140.18-225.42,209.87c-32.82,30.39-59.43,29.31-89.92-7.19C1832.39,2184.25,1792.1,2155.29,1759.11,2124.36z"
	/>
<path d="M1412.74,1926.54c-277.38,69.5-569.44-33.52-741.83-261.66c-190-251.77-200.07-588.42-28.41-845.23
	c168.24-251.77,485.56-375.86,769.97-299.43c-210.68-20.05-397.17,36.42-554.89,177.5s-236.13,320.65-236.22,531.6
	C621.01,1609.22,956.94,1976.44,1412.74,1926.54z"/>
<path d="M1289.64,1038.42c-2.78,17.18-11.12,32.97-23.74,44.96c-45.78,43.7-94.74,83.94-146.48,120.4
	c-34.89,24.46-54.67,18.79-82.45-13.58c-15.05-15.66-27.71-33.44-37.59-52.78c-15.74-35.52-8.99-62.04,20.95-87.22
	c38-31.77,76.31-63.12,114.91-94.05c31.74-25.54,64.02-25.36,95.67,0.81c14.12,11.69,27.78,24.01,40.73,36.96
	C1283.54,1005.62,1290.05,1021.73,1289.64,1038.42z"/>
<path d="M948.67,1579.81c-17.69,1.24-35.19-4.4-48.83-15.74c-31.19-27-53.2-63.05-62.94-103.14c-6.38-24.82,6.56-42.44,29.49-51.97
	c43.06-18.7,85.09-39.71,125.89-62.94c40.46-22.12,71.21-16.36,100.62,18.97c14.69,17.46,28.03,36.01,39.92,55.48
	c17.26,28.68,13.4,58.53-13.67,77.6c-48.51,33.29-100.94,60.47-156.1,80.93C958.39,1580.42,953.46,1580.7,948.67,1579.81z"/>
<path d="M1005.86,1244.87c-2.43,27.6-11.6,45.59-28.96,54.76c-41.54,21.94-80.3,48.83-124.63,65.55
	c-29.67,11.24-49.82,4.68-64.92-23.02c-14.5-28.32-22.64-59.47-23.83-91.27c-2.7-40.73,8.99-55.75,46.76-73.37
	c28.32-13.13,55.75-28.06,83.35-42.62c17.98-9.62,37.05-15.29,53.95,0.54C977.46,1165.31,997.74,1203.41,1005.86,1244.87z"/>
<path d="M910.36,928.45c2.07-39.38,87.13-116.27,119.77-115.73c29.04,0.45,83.44,40.02,92.43,66.81
	c5.1,15.14,0.43,31.86-11.78,42.17c-35.94,35.27-74.84,67.4-116.27,96.03c-18.88,12.77-40.2,11.96-53.95-8.36
	C922.86,982.4,910.9,952.91,910.36,928.45z"/>
<path d="M1163.31,844.37c-37.41-11.51-71.93-28.6-97.02-58.99c-8.99-10.61-5.48-22.39,3.06-32.37
	c10.07-11.78,20.86-23.02,30.39-35.25c16.28-20.77,30.21-44.96,60.96-46.67c40.73-1.89,81.73-2.61,119.95,15.2
	c15.92,7.37,23.02,20.14,13.04,35.97c-25.04,39.25-54.98,75.15-89.11,106.82C1193.32,839.33,1178.53,844.81,1163.31,844.37z"/>
<path d="M1791.92,778.28c-1.58,23.54-7.49,46.59-17.44,67.98c-8.18,20.86-26.98,29.22-44.96,18.88
	c-41.09-24.37-83.98-48.01-111.14-89.11c-7.52-10.55-9.8-23.97-6.2-36.42c8.99-27.52,19.6-53.95,20.95-83.8
	c0.63-14.21,12.59-14.93,22.66-10.43c50.98,21.23,95.59,55.31,129.48,98.91C1792.25,754.15,1794.68,766.52,1791.92,778.28z"/>
<path d="M752.02,1065.39c1.44-12.59,2.07-25.36,4.58-37.68c10.91-50.2,50.64-89.09,101.07-98.91c11.27-2.53,22.67,3.76,26.53,14.66
	c13.48,26.71,22.36,55.5,26.26,85.15c4.05,30.48-8.99,53.95-37.5,69.24c-25.52,14.66-51.81,27.92-78.77,39.74
	c-22.48,8.99-34.71,1.53-40.02-21.31C751.3,1099.48,750.57,1082.38,752.02,1065.39z"/>
<path d="M1447.45,572.19c42.98,7.01,86.5,13.49,124.36,39.2c16,10.79,22.39,23.29,18.61,41.09c-2.37,11.52-5.37,22.89-8.99,34.08
	c-13.22,41.54-31.83,52.87-74.27,40.1c-32.73-9.54-64.42-22.34-94.59-38.22c-20.77-11.15-28.24-27.42-20.14-49.9
	c4.97-10.64,8.28-21.98,9.8-33.63C1403.03,574.26,1418.14,565,1447.45,572.19z"/>
<path d="M758.68,1357.54c-1.89,19.24-4.58,34.35-24.01,38.58c-24.73,5.4-56.56-6.2-64.92-26.08
	c-20.95-50.26-24.91-103.41-24.82-156.91c0-10.52,4.32-20.32,19.06-11.24c4.58,3.16,10,4.88,15.56,4.94
	c43.79-3.87,55.48,24.91,61.77,58.09C747.62,1298.1,757.86,1328.04,758.68,1357.54z"/>
<path d="M1239.65,657.79c-15.92-2.07-35.25-3.78-53.95-7.1c-10.97-1.89-28.6,0-27.6-15.74c1.08-17.98-1.8-41.81,18.52-50.54
	c51.65-20.89,108.06-27.11,163.02-17.98c12.32,1.8,17.98,9.89,17.26,23.47c-1.44,47.57-26.35,71.93-74.72,70.05
	C1268.87,659.77,1256.01,658.69,1239.65,657.79z"/>
<path d="M731.7,1438.46c41.09-2.16,66.18,19.06,84.43,51.16c15.65,27.42,33.45,53.95,44.96,83.35c8.99,23.02,1.35,35.97-23.29,35.97
	c-24.64,0-46.94-4.76-62.22-24.46c-35.97-46.49-67.62-95.31-85.96-151.24C691.24,1431.99,719.38,1439.09,731.7,1438.46z"/>
<path d="M736.91,1049.48c-2.7,31.29-1.35,62.94-14.21,92.97c-8.36,19.42-21.31,21.67-39.83,18.43
	c-18.52-3.24-30.21-11.96-29.4-32.28c2.9-50.56,15.7-100.05,37.68-145.67c8.99-20.32,21.94-7.73,34.17-7.01
	c13.94,0.72,16.46,7.55,15.11,19.6C738.44,1013.42,737.99,1031.49,736.91,1049.48z"/>
<path d="M858.93,1642.58c47.57-2.7,83.44,19.78,116.89,48.74c15.65,13.4,67.53,54.76,61.59,62.94
	c-7.95,8.17-19.24,12.19-30.57,10.88c-25.27-1.53-43.97-17.44-62.94-29.4c-42.49-24.68-81.22-55.33-115.01-91
	C827.19,1643.21,848.32,1643.21,858.93,1642.58z"/>
<path d="M698.52,1433.34"/>
</svg>
